<svg width="80" height="38" viewBox="0 0 80 38" fill="none" xmlns="http://www.w3.org/2000/svg">
<path d="M21.2898 15.2667C18.8287 21.7337 20.6965 25.6749 17.2173 28.475C15.2182 30.0834 12.8825 29.9506 10.9844 29.3719V30.6783H22.0584C25.3331 30.6783 27.9878 27.9285 27.9878 24.5364C27.9916 23.5286 27.7517 22.5352 27.289 21.643C26.8263 20.7508 26.1548 19.9869 25.3334 19.4182C26.021 18.9376 26.6047 18.32 27.0486 17.6032C27.4926 16.8863 27.7875 16.0854 27.9154 15.2492C28.0433 14.413 28.0014 13.5591 27.7924 12.7399C27.5833 11.9206 27.2115 11.1531 26.6997 10.4844C25.1074 10.9553 22.4643 12.1803 21.2898 15.2667Z" fill="#FF8607"/>
<path d="M15.1407 24.309C18.0957 23.1293 17.4691 19.3886 18.8374 16.3473C20.5429 12.5568 23.0734 11.1748 26.5503 10.298C26.0019 9.63002 25.3154 9.09216 24.5392 8.72242C23.763 8.35267 22.9162 8.16007 22.0584 8.1582H10.9844V21.082C11.1413 23.5463 13.0509 25.1435 15.1407 24.309Z" fill="#006633"/>
<path d="M18.8373 37.1031C16.0931 36.847 13.4452 35.9488 11.1024 34.4792C8.75949 33.0097 6.78573 31.0091 5.33669 28.6351C3.88765 26.2611 3.00296 23.5786 2.75236 20.7992C2.50176 18.0198 2.89211 15.2194 3.89263 12.6189C4.89316 10.0183 6.4765 7.68875 8.51781 5.81378C10.5591 3.93881 13.0026 2.56973 15.6556 1.81448C18.3086 1.05923 21.0985 0.938469 23.8054 1.46171C26.5124 1.98495 29.0623 3.1379 31.2541 4.82963C28.6635 2.48675 25.4815 0.918239 22.0626 0.298836C18.6437 -0.320567 15.1221 0.0334548 11.8902 1.32146C8.65822 2.60947 5.84278 4.7809 3.75749 7.59385C1.6722 10.4068 0.398924 13.7508 0.0795086 17.2535C-0.239907 20.7561 0.407076 24.2797 1.94839 27.4319C3.4897 30.5841 5.86482 33.241 8.80917 35.1067C11.7535 36.9724 15.1515 37.9737 18.6246 37.9989C22.0977 38.0242 25.5095 37.0725 28.48 35.2497C25.5025 36.7757 22.1598 37.4182 18.8373 37.1031Z" fill="#006633"/>
<path d="M29.9409 20.7731H33.594L31.7062 29.0331H33.2731L32.9051 30.6775H29.4219L31.3098 22.4174H29.554L29.9409 20.7731ZM31.744 17.2836C31.7431 17.1159 31.7768 16.9499 31.843 16.7962C31.9063 16.6474 31.9977 16.5126 32.112 16.3993C32.2272 16.2866 32.3615 16.1959 32.5086 16.1317C32.6635 16.064 32.8307 16.0298 32.9995 16.0313C33.165 16.0304 33.329 16.0646 33.4808 16.1317C33.7762 16.2587 34.0114 16.4969 34.1369 16.7962C34.2031 16.9499 34.2369 17.1159 34.236 17.2836C34.2366 17.4529 34.2028 17.6204 34.1369 17.776C34.0736 17.9278 33.9841 18.0671 33.8726 18.1872C33.7612 18.306 33.6282 18.4018 33.4808 18.4692C33.3298 18.5393 33.1655 18.5751 32.9995 18.5742C32.8302 18.5758 32.6627 18.54 32.5086 18.4692C32.3602 18.401 32.2257 18.3054 32.112 18.1872C31.9981 18.0681 31.9069 17.9286 31.843 17.776C31.7771 17.6204 31.7435 17.4528 31.744 17.2836Z" fill="#FF8607"/>
<path d="M43.9398 23.508H42.0237L42.2975 22.3417C41.7415 22.3249 41.195 22.4909 40.74 22.8149C40.2995 23.145 39.9381 23.5714 39.6827 24.0624L38.5501 29.0337H40.1736L39.8055 30.6782H36.2656L38.1535 22.4181H36.2846L36.6715 20.7738H40.3624L40.0509 22.1314C40.2261 21.9284 40.4154 21.7383 40.6172 21.5625C40.8144 21.3903 41.0278 21.2383 41.2544 21.1085C41.4754 20.982 41.7097 20.881 41.9528 20.8074C42.1901 20.7348 42.4366 20.6977 42.6845 20.6973C42.9113 20.6973 43.106 20.7007 43.27 20.707C43.4333 20.7133 43.6079 20.7245 43.7937 20.7404C43.9794 20.7565 44.2358 20.7868 44.563 20.8312L43.9398 23.508Z" fill="#FF8607"/>
<path d="M52.2378 30.0089C51.8464 30.2805 51.419 30.4946 50.9682 30.6446C50.5424 30.7817 50.0982 30.851 49.6514 30.85C49.1347 30.8539 48.6231 30.7464 48.1506 30.5347C47.6944 30.3312 47.2822 30.0388 46.9376 29.6741C46.5887 29.3017 46.3132 28.8654 46.1259 28.3884C45.9254 27.8824 45.8244 27.3417 45.8286 26.7965C45.8186 25.9247 45.9823 25.0599 46.3098 24.2536C46.6125 23.5103 47.0567 22.8347 47.617 22.2652C48.1684 21.7102 48.823 21.2715 49.543 20.9744C50.2842 20.6669 51.0782 20.5111 51.8792 20.5157C52.3315 20.5125 52.7812 20.5851 53.21 20.7307C53.5819 20.8499 53.9279 21.0398 54.2297 21.29L54.3525 20.7738H56.2497L54.3618 29.0337H55.8816L55.5133 30.678H52.0868L52.2378 30.0089ZM50.0951 29.2059C50.3352 29.2049 50.5743 29.176 50.8079 29.1197C51.0443 29.0643 51.2761 28.9907 51.5016 28.8998C51.717 28.813 51.9254 28.7091 52.1247 28.5891C52.3069 28.4804 52.4805 28.3573 52.6437 28.2211L53.8614 22.9247C53.6548 22.6833 53.3921 22.4976 53.097 22.3846C52.663 22.2193 52.2009 22.143 51.7375 22.1599C51.2441 22.1618 50.7561 22.2642 50.3026 22.4611C49.8284 22.6636 49.3984 22.9592 49.0377 23.331C48.6511 23.7339 48.3437 24.2076 48.1318 24.7268C47.8904 25.3224 47.7715 25.9616 47.7824 26.6054C47.7768 26.9775 47.8343 27.3477 47.9524 27.7001C48.0538 28.0019 48.2144 28.2799 48.4243 28.5174C48.627 28.7416 48.8771 28.9164 49.1559 29.0289C49.4546 29.1493 49.7736 29.2094 50.0951 29.2059Z" fill="#FF8607"/>
<path d="M64.6781 30.0661C64.3066 30.3344 63.8934 30.538 63.4556 30.6685C63.0146 30.7925 62.5587 30.8536 62.101 30.85C61.5843 30.8539 61.0727 30.7464 60.6001 30.5347C60.144 30.3312 59.7319 30.0388 59.3873 29.6741C59.0383 29.3018 58.7627 28.8654 58.5753 28.3884C58.3748 27.8824 58.2738 27.3417 58.278 26.7965C58.268 25.9247 58.4318 25.0598 58.7596 24.2536C59.0622 23.5103 59.5063 22.8347 60.0666 22.2652C60.6181 21.7102 61.2727 21.2715 61.9927 20.9744C62.7339 20.6669 63.5278 20.5111 64.3287 20.5157C64.7811 20.5125 65.2308 20.5851 65.6598 20.7307C66.0316 20.8499 66.3776 21.0398 66.6793 21.29L66.8022 20.7738H68.7183L66.4715 30.5633C66.3156 31.3005 66.0616 32.0129 65.7163 32.6808C65.4295 33.2297 65.0381 33.7155 64.5647 34.1102C64.0977 34.487 63.5597 34.7635 62.9837 34.9227C62.3174 35.1033 61.6297 35.1902 60.94 35.1809C60.5796 35.1797 60.2198 35.151 59.8637 35.0949C59.4938 35.0378 59.1291 34.9498 58.7735 34.832C58.4251 34.717 58.0884 34.5681 57.7683 34.3874C57.464 34.2168 57.1844 34.0044 56.9375 33.7563L58.1554 32.3607C58.3176 32.5355 58.5016 32.6881 58.7028 32.8147C58.9269 32.957 59.1641 33.0771 59.411 33.1732C59.6756 33.2771 59.9488 33.3571 60.2274 33.4123C60.515 33.4697 60.8074 33.4985 61.1005 33.4982C61.5173 33.5027 61.9329 33.4528 62.3372 33.3499C62.7025 33.2542 63.0425 33.0779 63.3329 32.8337C63.6501 32.5567 63.91 32.2188 64.0976 31.8396C64.364 31.2755 64.559 30.6796 64.6781 30.0661ZM62.5447 29.2058C63.017 29.2094 63.4854 29.1184 63.9229 28.9382C64.3511 28.7594 64.7492 28.5143 65.1029 28.2115L66.3112 22.9343C66.104 22.6923 65.8415 22.5052 65.5466 22.3894C65.1134 22.2207 64.651 22.1427 64.1872 22.1599C63.6938 22.1618 63.2057 22.2642 62.7522 22.4611C62.278 22.6635 61.8481 22.9592 61.4874 23.331C61.1008 23.7339 60.7933 24.2076 60.5814 24.7268C60.34 25.3224 60.2211 25.9616 60.232 26.6054C60.2264 26.9774 60.2839 27.3477 60.4019 27.7001C60.5034 28.0019 60.6639 28.2799 60.8739 28.5174C61.0766 28.7415 61.3267 28.9164 61.6055 29.0289C61.9042 29.1493 62.2232 29.2093 62.5447 29.2058Z" fill="#FF8607"/>
<path d="M69.7853 26.3849C69.7815 25.3356 70.0501 24.3037 70.5641 23.3926C70.8102 22.9562 71.1117 22.5544 71.461 22.1975C71.8066 21.8434 72.1952 21.535 72.6173 21.2798C73.0416 21.0237 73.4969 20.8245 73.9718 20.6871C74.4583 20.5461 74.962 20.4753 75.4679 20.4768C76.0859 20.4709 76.6988 20.5895 77.2711 20.8256C77.8041 21.0431 78.2892 21.3655 78.6983 21.7741C79.1074 22.1828 79.4325 22.6695 79.6546 23.2062C79.8862 23.7611 80.0034 24.358 79.9991 24.9603C80.0012 25.4996 79.9312 26.0367 79.7913 26.557C79.5275 27.5452 79.021 28.4496 78.3189 29.1859C77.9763 29.5463 77.5873 29.8583 77.1624 30.1133C76.7348 30.3695 76.2763 30.5688 75.7984 30.706C75.3071 30.8471 74.7987 30.9179 74.2881 30.9164C73.6701 30.9235 73.0569 30.8048 72.4851 30.5673C71.9524 30.3448 71.4682 30.0184 71.0598 29.6067C70.6547 29.1956 70.3353 28.7063 70.1205 28.1677C69.8942 27.6015 69.7803 26.9957 69.7853 26.3849ZM71.7584 26.251C71.7533 26.6655 71.8187 27.0779 71.9517 27.47C72.0688 27.8159 72.2534 28.1345 72.4944 28.4068C72.7289 28.666 73.0155 28.8713 73.3348 29.009C73.675 29.1552 74.0413 29.2285 74.4108 29.2243C74.8759 29.2229 75.335 29.1185 75.7559 28.9182C76.193 28.7147 76.586 28.4255 76.9123 28.0674C77.2581 27.6845 77.5316 27.2406 77.7192 26.7577C77.9286 26.2224 78.0328 25.6508 78.0262 25.0751C78.0322 24.6643 77.9634 24.256 77.8231 23.8705C77.6978 23.53 77.5069 23.218 77.2616 22.9527C77.0238 22.6989 76.7359 22.4986 76.4166 22.3648C76.0797 22.2253 75.7187 22.1554 75.3548 22.1593C74.8901 22.159 74.431 22.2618 74.0097 22.4604C73.5769 22.6625 73.1872 22.9483 72.8625 23.3018C72.5181 23.6794 72.2461 24.1186 72.0604 24.5971C71.8547 25.1233 71.7521 25.685 71.7584 26.251Z" fill="#FF8607"/>
<path d="M42.9347 2.30919C42.9347 2.30919 42.2537 2.04939 40.9068 2.5495C40.1041 2.84635 39.3244 3.20375 38.5744 3.61869L37.0416 2.66022L37.6233 2.32852L37.3676 1.86846L36.5345 2.34336L34.564 1.11133L33.879 1.57185L36.6472 4.49923L34.2778 5.89997L32.9034 5.15491L32.5547 5.42198L33.5255 6.68571L33.7454 8.15697L34.2155 7.9847L34.5603 6.57174L37.0665 5.55744L37.529 9.69999L38.1726 9.4719L38.5555 7.38206L39.5462 6.81731L39.2904 6.3571L38.6795 6.70535L39.0367 4.75717C39.0367 4.75717 41.8317 3.49993 42.384 3.07064C42.9361 2.6412 42.9347 2.30919 42.9347 2.30919Z" fill="#006633"/>
<path d="M34.668 3.301L30.8379 5.48903L34.3599 2.97656L34.668 3.301Z" fill="#B2B2B2"/>
<path d="M36.7359 7.2373L36.808 7.96521L31.0996 11.1742L36.7359 7.2373Z" fill="#B2B2B2"/>
<path d="M32.2855 7.11133L27.6777 9.78308L32.556 7.59056L32.5286 7.27076L32.2855 7.11133Z" fill="#B2B2B2"/>
<path d="M12.8184 32.0137H12.0469V31.7314H13.9251V32.0137H13.1498V34.301H12.8184V32.0137Z" fill="#B2B2B2"/>
<path d="M14.7827 33.0319C14.7827 32.8145 14.779 32.6277 14.7676 32.456H15.0572L15.0687 32.8182H15.0838C15.1149 32.7055 15.1805 32.6057 15.2712 32.5331C15.3618 32.4605 15.4728 32.4188 15.5883 32.4141C15.62 32.4136 15.6516 32.4175 15.6822 32.4257V32.7419C15.6451 32.7339 15.6073 32.7301 15.5694 32.7307C15.4562 32.7353 15.3487 32.7816 15.2669 32.8609C15.1851 32.9402 15.1348 33.0471 15.1253 33.1613C15.1159 33.213 15.1108 33.2653 15.1102 33.3178V34.3012H14.7827V33.0319Z" fill="#B2B2B2"/>
<path d="M17.7574 34.3014L17.7312 34.069H17.7197C17.655 34.1562 17.5707 34.2266 17.4738 34.2743C17.3769 34.322 17.2702 34.3457 17.1625 34.3433C17.0909 34.3487 17.0189 34.3389 16.9512 34.3146C16.8835 34.2903 16.8215 34.2521 16.7692 34.2023C16.7168 34.1525 16.6752 34.0922 16.647 34.0253C16.6189 33.9584 16.6047 33.8863 16.6055 33.8135C16.6055 33.3674 16.9969 33.1234 17.7009 33.1271V33.089C17.7083 33.0319 17.7027 32.9738 17.6846 32.9191C17.6665 32.8644 17.6364 32.8147 17.5965 32.7735C17.5566 32.7324 17.508 32.701 17.4544 32.6816C17.4008 32.6623 17.3435 32.6555 17.287 32.6619C17.1193 32.6624 16.9551 32.71 16.8125 32.7992L16.7371 32.5781C16.9177 32.468 17.1251 32.4113 17.3358 32.4142C17.893 32.4142 18.0283 32.7992 18.0283 33.169V33.8591C18.0259 34.0072 18.036 34.1551 18.0585 34.3014H17.7574ZM17.7082 33.3598C17.3468 33.3521 16.9367 33.4167 16.9367 33.7753C16.9333 33.8179 16.939 33.8608 16.9534 33.901C16.9679 33.9412 16.9907 33.9777 17.0204 34.0081C17.0501 34.0385 17.0859 34.0621 17.1254 34.0772C17.1649 34.0923 17.2071 34.0986 17.2493 34.0956C17.3455 34.0981 17.4401 34.0695 17.5193 34.014C17.5985 33.9585 17.6582 33.8789 17.6898 33.7868C17.7013 33.7523 17.7075 33.7163 17.7082 33.6799V33.3598Z" fill="#B2B2B2"/>
<path d="M19.4164 32.4551L19.774 33.4921C19.8312 33.647 19.8802 33.8048 19.9208 33.965H19.9322C19.9736 33.8124 20.0261 33.6597 20.0865 33.4921L20.4404 32.4551H20.7867L20.0716 34.3004H19.7553L19.0625 32.4551H19.4164Z" fill="#B2B2B2"/>
<path d="M21.9998 33.4398C21.9926 33.5251 22.0037 33.611 22.0324 33.6915C22.0611 33.772 22.1068 33.8452 22.1662 33.9061C22.2256 33.967 22.2974 34.0141 22.3765 34.0441C22.4557 34.0741 22.5403 34.0864 22.6246 34.08C22.7976 34.0855 22.9697 34.053 23.1291 33.9848L23.1856 34.2249C22.9939 34.306 22.7873 34.345 22.5796 34.3395C22.0188 34.3395 21.6836 33.9659 21.6836 33.409C21.6836 32.8526 22.0073 32.4141 22.5382 32.4141C23.1328 32.4141 23.291 32.944 23.291 33.2833C23.2904 33.3356 23.2867 33.3879 23.2799 33.4398H21.9998ZM22.971 33.1995C22.9746 32.9859 22.8845 32.6542 22.5117 32.6542C22.1768 32.6542 22.0297 32.9667 22.0036 33.1995H22.971Z" fill="#B2B2B2"/>
<path d="M24.7881 31.5938H24.457V34.3006H24.7881V31.5938Z" fill="#B2B2B2"/>
<path d="M27.9898 31.7314H27.6621V34.301H27.9898V31.7314Z" fill="#B2B2B2"/>
<path d="M29.3432 32.9557C29.3432 32.7649 29.3396 32.6088 29.3281 32.4562H29.6219L29.6404 32.7612H29.6482C29.7078 32.6532 29.7954 32.5639 29.9016 32.5028C30.0077 32.4416 30.1283 32.411 30.2504 32.4143C30.5025 32.4143 30.8942 32.5668 30.8942 33.1997V34.3014H30.5627V33.2379C30.5627 32.9404 30.4536 32.6927 30.1411 32.6927C30.0406 32.6944 29.9432 32.7286 29.8633 32.7904C29.7834 32.8521 29.7251 32.9381 29.6969 33.0358C29.6811 33.0862 29.6734 33.1389 29.6743 33.1918V34.3014H29.3432V32.9557Z" fill="#B2B2B2"/>
<path d="M32.5712 31.9258V32.4557H33.0453V32.7114H32.5712V33.7063C32.5712 33.9351 32.6352 34.0645 32.8195 34.0645C32.8843 34.0654 32.9489 34.0578 33.0117 34.0418L33.0265 34.2935C32.9323 34.3268 32.8328 34.3423 32.733 34.3391C32.6669 34.3431 32.6007 34.3326 32.5389 34.3083C32.4772 34.2839 32.4213 34.2463 32.3753 34.1981C32.2745 34.0599 32.2288 33.8884 32.2472 33.7176V32.7114H31.9648V32.4557H32.2472V32.0136L32.5712 31.9258Z" fill="#B2B2B2"/>
<path d="M34.3359 33.4398C34.3286 33.5251 34.3397 33.611 34.3684 33.6915C34.3971 33.772 34.4428 33.8453 34.5022 33.9062C34.5616 33.967 34.6334 34.0141 34.7126 34.0442C34.7918 34.0742 34.8764 34.0864 34.9607 34.08C35.1337 34.0855 35.3058 34.053 35.4652 33.9848L35.5217 34.2249C35.3299 34.306 35.1234 34.345 34.9157 34.3395C34.3547 34.3395 34.0195 33.9659 34.0195 33.409C34.0195 32.8526 34.3432 32.4141 34.8743 32.4141C35.4689 32.4141 35.6271 32.944 35.6271 33.2833C35.6265 33.3357 35.6227 33.3879 35.6158 33.4398H34.3359ZM35.307 33.1995C35.3107 32.9859 35.2206 32.6542 34.8477 32.6542C34.5129 32.6542 34.3658 32.9667 34.3396 33.1995H35.307Z" fill="#B2B2B2"/>
<path d="M36.7925 33.0319C36.7925 32.8145 36.7888 32.6277 36.7773 32.456H37.067L37.0785 32.8182H37.0936C37.1247 32.7055 37.1902 32.6057 37.2809 32.5331C37.3715 32.4605 37.4825 32.4188 37.5979 32.4141C37.6296 32.4136 37.6613 32.4175 37.692 32.4257V32.7419C37.6549 32.7339 37.617 32.7301 37.5791 32.7307C37.466 32.7353 37.3584 32.7816 37.2766 32.8609C37.1948 32.9402 37.1445 33.0471 37.1349 33.1613C37.1255 33.213 37.1204 33.2653 37.1198 33.3178V34.3012H36.7925V33.0319Z" fill="#B2B2B2"/>
<path d="M38.7925 32.9557C38.7925 32.7649 38.7888 32.6088 38.7773 32.4562H39.071L39.0896 32.7612H39.0974C39.157 32.6532 39.2446 32.5639 39.3508 32.5028C39.4569 32.4416 39.5776 32.411 39.6996 32.4143C39.9517 32.4143 40.3434 32.5668 40.3434 33.1997V34.3014H40.0119V33.2379C40.0119 32.9404 39.9029 32.6927 39.5903 32.6927C39.4898 32.6944 39.3924 32.7286 39.3125 32.7903C39.2326 32.8521 39.1743 32.9381 39.1461 33.0358C39.1303 33.0862 39.1226 33.1389 39.1235 33.1918V34.3014H38.7925V32.9557Z" fill="#B2B2B2"/>
<path d="M42.6459 34.3014L42.6197 34.069H42.6084C42.5436 34.1562 42.4594 34.2266 42.3625 34.2743C42.2656 34.322 42.1589 34.3456 42.0512 34.3433C41.9796 34.3487 41.9076 34.3389 41.8399 34.3146C41.7722 34.2903 41.7102 34.2521 41.6578 34.2023C41.6055 34.1525 41.5639 34.0922 41.5357 34.0253C41.5075 33.9584 41.4934 33.8863 41.4942 33.8135C41.4942 33.3674 41.8855 33.1234 42.5894 33.1271V33.089C42.5968 33.0319 42.5912 32.9738 42.5731 32.9191C42.5551 32.8645 42.525 32.8147 42.4851 32.7735C42.4453 32.7324 42.3967 32.701 42.3431 32.6816C42.2895 32.6623 42.2322 32.6555 42.1756 32.6619C42.008 32.6624 41.8438 32.71 41.7012 32.7992L41.6258 32.5781C41.8064 32.468 42.0137 32.4113 42.2245 32.4142C42.7817 32.4142 42.917 32.7992 42.917 33.169V33.8591C42.9146 34.0072 42.9247 34.1551 42.9472 34.3014H42.6459ZM42.5969 33.3598C42.2355 33.3521 41.8254 33.4167 41.8254 33.7753C41.8219 33.8179 41.8277 33.8608 41.8421 33.901C41.8566 33.9412 41.8794 33.9777 41.9091 34.0081C41.9388 34.0385 41.9746 34.0621 42.0141 34.0772C42.0536 34.0923 42.0958 34.0986 42.1379 34.0956C42.2342 34.0981 42.3288 34.0695 42.408 34.014C42.4871 33.9585 42.5468 33.8789 42.5784 33.7868C42.5899 33.7523 42.5961 33.7163 42.5969 33.6799V33.3598Z" fill="#B2B2B2"/>
<path d="M44.5907 31.9258V32.4557H45.0649V32.7114H44.5907V33.7063C44.5907 33.9351 44.6547 34.0645 44.839 34.0645C44.9037 34.0655 44.9682 34.0578 45.031 34.0418L45.0459 34.2935C44.9517 34.3269 44.8523 34.3423 44.7526 34.3391C44.6865 34.3431 44.6203 34.3326 44.5585 34.3083C44.4968 34.2839 44.441 34.2463 44.395 34.1981C44.2941 34.06 44.2483 33.8884 44.2667 33.7176V32.7114H43.9844V32.4557H44.2667V32.0136L44.5907 31.9258Z" fill="#B2B2B2"/>
<path d="M46.5607 31.9367C46.5603 31.9915 46.5385 32.0439 46.5001 32.0826C46.4617 32.1212 46.4097 32.1428 46.3556 32.1428C46.3015 32.1428 46.2495 32.1212 46.2111 32.0826C46.1727 32.0439 46.1509 31.9915 46.1505 31.9367C46.1497 31.9089 46.1546 31.8813 46.1647 31.8555C46.1749 31.8297 46.1901 31.8063 46.2095 31.7866C46.2288 31.767 46.2519 31.7516 46.2774 31.7412C46.3028 31.7309 46.3301 31.726 46.3575 31.7267C46.3848 31.7257 46.412 31.7306 46.4373 31.7409C46.4627 31.7511 46.4856 31.7666 46.5047 31.7864C46.5239 31.8061 46.5387 31.8297 46.5483 31.8556C46.558 31.8814 46.5622 31.9091 46.5607 31.9367ZM46.1918 32.455H46.523V34.3004H46.1918V32.455Z" fill="#B2B2B2"/>
<path d="M49.4757 33.3634C49.4757 34.0458 49.0086 34.3432 48.5681 34.3432C48.0752 34.3432 47.6953 33.9772 47.6953 33.3939C47.6953 32.7764 48.0943 32.4141 48.5985 32.4141C49.1216 32.4141 49.4757 32.7993 49.4757 33.3634ZM48.03 33.3826C48.03 33.7867 48.26 34.0918 48.5835 34.0918C48.8999 34.0918 49.1364 33.7905 49.1364 33.3747C49.1364 33.0623 48.9827 32.666 48.591 32.666C48.1993 32.666 48.03 33.0319 48.03 33.3826Z" fill="#B2B2B2"/>
<path d="M50.6484 32.9557C50.6484 32.7649 50.6447 32.6088 50.6328 32.4562H50.9269L50.9455 32.7611H50.9529C51.0126 32.6533 51.1003 32.564 51.2064 32.5029C51.3126 32.4418 51.4332 32.4112 51.5552 32.4143C51.8079 32.4143 52.1988 32.5668 52.1988 33.1997V34.3014H51.8678V33.2379C51.8678 32.9404 51.7586 32.6926 51.4465 32.6926C51.346 32.6942 51.2486 32.7284 51.1686 32.7902C51.0887 32.8519 51.0304 32.938 51.0023 33.0358C50.9861 33.0861 50.9784 33.1389 50.9794 33.1918V34.3014H50.6484V32.9557Z" fill="#B2B2B2"/>
<path d="M54.5019 34.3014L54.4754 34.069H54.4641C54.3994 34.1562 54.3151 34.2266 54.2183 34.2743C54.1214 34.322 54.0147 34.3457 53.907 34.3433C53.8353 34.3487 53.7634 34.3389 53.6956 34.3146C53.6279 34.2903 53.5659 34.2521 53.5135 34.2023C53.4611 34.1525 53.4195 34.0922 53.3913 34.0253C53.3631 33.9584 53.3489 33.8863 53.3496 33.8135C53.3496 33.3674 53.7414 33.1234 54.4457 33.1271V33.089C54.453 33.0318 54.4474 32.9737 54.4292 32.919C54.4111 32.8643 54.3809 32.8145 54.341 32.7733C54.301 32.7322 54.2524 32.7008 54.1987 32.6815C54.145 32.6622 54.0877 32.6555 54.0311 32.6619C53.8635 32.6626 53.6993 32.7101 53.5567 32.7992L53.482 32.5781C53.6623 32.468 53.8695 32.4113 54.08 32.4142C54.6371 32.4142 54.7732 32.7992 54.7732 33.169V33.8591C54.7708 34.0071 54.7807 34.1551 54.8027 34.3014H54.5019ZM54.4532 33.3598C54.0917 33.3521 53.6814 33.4167 53.6814 33.7753C53.678 33.8179 53.6836 33.8607 53.698 33.9009C53.7124 33.941 53.7352 33.9776 53.7648 34.008C53.7945 34.0384 53.8302 34.0619 53.8697 34.0771C53.9091 34.0922 53.9513 34.0985 53.9934 34.0956C54.0897 34.0982 54.1843 34.0697 54.2635 34.0141C54.3427 33.9586 54.4024 33.879 54.4339 33.7868C54.446 33.7524 54.4525 33.7164 54.4532 33.6799V33.3598Z" fill="#B2B2B2"/>
<path d="M56.3936 31.5938H56.0625V34.3006H56.3936V31.5938Z" fill="#B2B2B2"/>
</svg>
