<svg width="13" height="12" viewBox="0 0 13 12" fill="none" xmlns="http://www.w3.org/2000/svg">
<path d="M0.96967 5.72062C1.11032 5.57997 1.30109 5.50095 1.5 5.50095H10.1895L6.969 2.28195C6.89927 2.21222 6.84395 2.12943 6.80622 2.03832C6.76848 1.94721 6.74905 1.84956 6.74905 1.75095C6.74905 1.65233 6.76848 1.55468 6.80622 1.46357C6.84395 1.37246 6.89927 1.28968 6.969 1.21995C7.03873 1.15022 7.12152 1.0949 7.21262 1.05716C7.30373 1.01942 7.40138 1 7.5 1C7.59862 1 7.69627 1.01942 7.78738 1.05716C7.87848 1.0949 7.96127 1.15022 8.031 1.21995L12.531 5.71995C12.6008 5.78962 12.6563 5.87238 12.6941 5.9635C12.7319 6.05462 12.7513 6.1523 12.7513 6.25095C12.7513 6.3496 12.7319 6.44728 12.6941 6.5384C12.6563 6.62952 12.6008 6.71228 12.531 6.78195L8.031 11.2819C7.96127 11.3517 7.87848 11.407 7.78738 11.4447C7.69627 11.4825 7.59862 11.5019 7.5 11.5019C7.40138 11.5019 7.30373 11.4825 7.21262 11.4447C7.12152 11.407 7.03873 11.3517 6.969 11.2819C6.89927 11.2122 6.84395 11.1294 6.80622 11.0383C6.76848 10.9472 6.74905 10.8496 6.74905 10.7509C6.74905 10.6523 6.76848 10.5547 6.80622 10.4636C6.84395 10.3725 6.89927 10.2897 6.969 10.2199L10.1895 7.00095H1.5C1.30109 7.00095 1.11032 6.92193 0.96967 6.78128C0.829018 6.64063 0.75 6.44986 0.75 6.25095C0.75 6.05204 0.829018 5.86127 0.96967 5.72062Z" fill="#393738"/>
</svg>
