<svg width="48" height="48" viewBox="0 0 48 48" fill="none" xmlns="http://www.w3.org/2000/svg">
<g clip-path="url(#clip0_13343_7788)">
<path d="M10.942 27.0799C9.40857 26.8545 7.86454 26.708 6.31604 26.6409C5.63704 26.5989 4.74204 26.9529 4.58704 28.6649C4.55812 29.0954 4.59967 29.5278 4.71004 29.9449C4.81289 30.3805 5.04477 30.7749 5.37537 31.0766C5.70596 31.3783 6.11989 31.5732 6.56304 31.6359L13.182 32.5679C13.2151 32.5734 13.2485 32.576 13.282 32.5759C13.4113 32.576 13.5385 32.5427 13.6511 32.4792C13.7637 32.4157 13.858 32.3242 13.9248 32.2135C13.9916 32.1028 14.0287 31.9767 14.0324 31.8475C14.0361 31.7183 14.0064 31.5903 13.946 31.4759C11.769 27.3349 11.211 27.1629 10.942 27.0799ZM6.77204 30.1509C6.62664 30.1287 6.49126 30.0633 6.3834 29.9633C6.27554 29.8633 6.20017 29.7332 6.16704 29.5899C6.09727 29.333 6.06825 29.0668 6.08104 28.8009C6.08341 28.5733 6.13492 28.3488 6.23204 28.1429H6.25304C7.96304 28.2499 9.88604 28.4049 10.407 28.4969C10.9701 29.2503 11.4736 30.0464 11.913 30.8779L6.77204 30.1509Z" fill="#FF8607"/>
<path d="M41.6816 26.6408C40.1331 26.7079 38.5891 26.8544 37.0556 27.0798C36.7866 27.1628 36.2276 27.3348 34.0476 31.4798C33.9873 31.5941 33.9575 31.7221 33.9612 31.8514C33.965 31.9806 34.002 32.1067 34.0688 32.2174C34.1357 32.328 34.23 32.4196 34.3426 32.4831C34.4552 32.5466 34.5823 32.5799 34.7116 32.5798C34.7451 32.5799 34.7786 32.5772 34.8116 32.5718L41.4306 31.6398C41.8738 31.5771 42.2877 31.3822 42.6183 31.0805C42.9489 30.7788 43.1808 30.3844 43.2836 29.9488C43.3937 29.5316 43.4352 29.0993 43.4066 28.6688C43.2546 26.9528 42.3546 26.5998 41.6816 26.6408ZM41.8306 29.5898C41.7975 29.7331 41.7221 29.8632 41.6143 29.9632C41.5064 30.0632 41.371 30.1285 41.2256 30.1508L36.0846 30.8748C36.5243 30.0436 37.0275 29.2476 37.5896 28.4938C38.1196 28.4008 40.0446 28.2458 41.7536 28.1398C41.8627 28.3429 41.9187 28.5702 41.9166 28.8008C41.9295 29.0667 41.9004 29.3329 41.8306 29.5898Z" fill="#FF8607"/>
<path d="M34.383 27.7779C34.3075 27.67 34.2049 27.5838 34.0855 27.528C33.9662 27.4722 33.8343 27.4487 33.703 27.4599C33.634 27.4659 26.745 28.0599 24.003 28.0599C21.261 28.0599 14.371 27.4599 14.303 27.4599C14.1717 27.4484 14.0397 27.4716 13.9202 27.5275C13.8008 27.5833 13.6982 27.6696 13.6228 27.7777C13.5474 27.8859 13.5019 28.012 13.4909 28.1434C13.4799 28.2748 13.5037 28.4067 13.56 28.5259L15.535 32.7169C15.5928 32.8387 15.6822 32.9428 15.7939 33.0182C15.9056 33.0937 16.0355 33.1378 16.17 33.1459L23.999 33.5939L31.84 33.1459C31.9746 33.138 32.1046 33.094 32.2164 33.0185C32.3281 32.943 32.4174 32.8389 32.475 32.7169L34.45 28.5259C34.5059 28.4064 34.5291 28.2743 34.5174 28.1429C34.5056 28.0115 34.4592 27.8856 34.383 27.7779ZM31.305 31.6779L24.001 32.0999L16.701 31.6779L15.47 29.0659C17.629 29.2419 21.909 29.5659 24.004 29.5659C26.099 29.5659 30.38 29.2419 32.54 29.0659L31.305 31.6779Z" fill="#FF8607"/>
<path d="M28.3097 4.99442L29.4157 5.40842C29.7773 5.54361 30.1057 5.75478 30.3788 6.02768C30.6519 6.30059 30.8632 6.62888 30.9987 6.99042L31.4127 8.10042C31.4667 8.24233 31.5626 8.36446 31.6876 8.45064C31.8126 8.53682 31.9608 8.58296 32.1127 8.58296C32.2645 8.58296 32.4128 8.53682 32.5378 8.45064C32.6628 8.36446 32.7586 8.24233 32.8127 8.10042L33.2267 6.99442C33.3623 6.63315 33.5736 6.30506 33.8464 6.0322C34.1193 5.75934 34.4474 5.54802 34.8087 5.41242L35.9147 4.99842C36.0566 4.94441 36.1787 4.84854 36.2649 4.72352C36.3511 4.59851 36.3972 4.45026 36.3972 4.29842C36.3972 4.14658 36.3511 3.99833 36.2649 3.87332C36.1787 3.74831 36.0566 3.65244 35.9147 3.59842L34.8087 3.18442C34.4471 3.04901 34.1188 2.83763 33.8459 2.56455C33.573 2.29147 33.3619 1.96305 33.2267 1.60142L32.8167 0.487423C32.7626 0.345519 32.6668 0.223383 32.5418 0.137206C32.4168 0.0510299 32.2685 0.00488281 32.1167 0.00488281C31.9648 0.00488281 31.8166 0.0510299 31.6916 0.137206C31.5666 0.223383 31.4707 0.345519 31.4167 0.487423L30.9987 1.59342C30.8635 1.95505 30.6523 2.28347 30.3794 2.55655C30.1065 2.82963 29.7782 3.04101 29.4167 3.17642L28.3107 3.59042C28.1688 3.64444 28.0466 3.74031 27.9604 3.86532C27.8743 3.99033 27.8281 4.13859 27.8281 4.29042C27.8281 4.44226 27.8743 4.59051 27.9604 4.71552C28.0466 4.84054 28.1688 4.93641 28.3107 4.99042L28.3097 4.99442ZM32.1147 2.73342C32.4856 3.38276 33.0236 3.92103 33.6727 4.29242C33.0234 4.66354 32.4854 5.20188 32.1147 5.85142C31.7431 5.2022 31.2049 4.66399 30.5557 4.29242C31.2049 3.92086 31.7431 3.38265 32.1147 2.73342Z" fill="#FF8607"/>
<path d="M32.1147 2.73342C32.4856 3.38276 33.0236 3.92103 33.6727 4.29242C33.0234 4.66354 32.4854 5.20188 32.1147 5.85142C31.7431 5.2022 31.2049 4.66399 30.5557 4.29242C31.2049 3.92086 31.7431 3.38265 32.1147 2.73342Z" fill="#FF8607"/>
<path d="M36.7414 9.64903L37.5794 9.96303C37.8291 10.0568 38.0558 10.2029 38.2444 10.3916C38.4329 10.5803 38.5788 10.8072 38.6724 11.057L38.9864 11.895C39.0399 12.0381 39.1358 12.1615 39.2614 12.2486C39.3869 12.3357 39.5361 12.3824 39.6889 12.3824C39.8416 12.3824 39.9908 12.3357 40.1163 12.2486C40.2419 12.1615 40.3378 12.0381 40.3914 11.895L40.7044 11.057C40.798 10.8071 40.9441 10.5802 41.1328 10.3915C41.3215 10.2028 41.5485 10.0567 41.7984 9.96303L42.6364 9.64903C42.7778 9.5946 42.8995 9.49858 42.9853 9.37362C43.0712 9.24866 43.1171 9.10062 43.1171 8.94903C43.1171 8.79744 43.0712 8.6494 42.9853 8.52444C42.8995 8.39947 42.7778 8.30345 42.6364 8.24903L41.7984 7.93103C41.5486 7.83802 41.3219 7.69235 41.1335 7.50393C40.945 7.31551 40.7994 7.08874 40.7064 6.83903L40.3914 6.00003C40.3378 5.85691 40.2419 5.73355 40.1163 5.64646C39.9908 5.55936 39.8416 5.5127 39.6889 5.5127C39.5361 5.5127 39.3869 5.55936 39.2614 5.64646C39.1358 5.73355 39.0399 5.85691 38.9864 6.00003L38.6724 6.83903C38.5788 7.08873 38.4329 7.31548 38.2444 7.50403C38.0558 7.69257 37.8291 7.83851 37.5794 7.93203L36.7404 8.24603C36.5984 8.30005 36.4763 8.39591 36.3901 8.52093C36.304 8.64594 36.2578 8.79419 36.2578 8.94603C36.2578 9.09787 36.304 9.24612 36.3901 9.37113C36.4763 9.49614 36.5984 9.59201 36.7404 9.64603L36.7414 9.64903ZM39.6884 8.10003C39.9166 8.42926 40.2021 8.71479 40.5314 8.94303C40.2028 9.17171 39.9174 9.45678 39.6884 9.78503C39.4599 9.45659 39.1748 9.17147 38.8464 8.94303C39.1753 8.71477 39.4605 8.42922 39.6884 8.10003Z" fill="#FF8607"/>
<path d="M41.4279 4.99371L42.2659 5.30771C42.5154 5.40112 42.7421 5.54691 42.9307 5.73527C43.1192 5.92363 43.2652 6.1502 43.3589 6.39971L43.6729 7.23771C43.7264 7.38083 43.8223 7.50419 43.9479 7.59128C44.0734 7.67837 44.2226 7.72504 44.3754 7.72504C44.5281 7.72504 44.6773 7.67837 44.8028 7.59128C44.9284 7.50419 45.0243 7.38083 45.0779 7.23771L45.3918 6.39971C45.4851 6.15004 45.6309 5.92329 45.8193 5.73474C46.0077 5.54619 46.2343 5.40023 46.4839 5.30671L47.3229 4.99271C47.4648 4.93869 47.5869 4.84282 47.6731 4.71781C47.7592 4.5928 47.8054 4.44455 47.8054 4.29271C47.8054 4.14087 47.7592 3.99262 47.6731 3.86761C47.5869 3.74259 47.4648 3.64673 47.3229 3.59271L46.4849 3.27771C46.2353 3.18435 46.0088 3.03856 45.8204 2.85019C45.632 2.66181 45.4862 2.43522 45.3929 2.18571L45.0788 1.34671C45.0253 1.20359 44.9294 1.08023 44.8038 0.993136C44.6783 0.906044 44.5291 0.859375 44.3764 0.859375C44.2236 0.859375 44.0744 0.906044 43.9489 0.993136C43.8233 1.08023 43.7274 1.20359 43.6739 1.34671L43.3599 2.18571C43.2663 2.43529 43.1204 2.66191 42.9318 2.85029C42.7433 3.03866 42.5165 3.18441 42.2668 3.27771L41.4279 3.59271C41.2859 3.64673 41.1638 3.74259 41.0776 3.86761C40.9915 3.99262 40.9453 4.14087 40.9453 4.29271C40.9453 4.44455 40.9915 4.5928 41.0776 4.71781C41.1638 4.84282 41.2859 4.93869 41.4279 4.99271V4.99371ZM44.3749 3.44971C44.6038 3.77772 44.8888 4.06276 45.2169 4.29171C44.8888 4.52066 44.6038 4.8057 44.3749 5.13371C44.1464 4.80527 43.8613 4.52015 43.5329 4.29171C43.8611 4.063 44.1461 3.77792 44.3749 3.44971Z" fill="#FF8607"/>
<path d="M45.8127 42.3711C45.6138 42.3711 45.423 42.4501 45.2824 42.5908C45.1417 42.7314 45.0627 42.9222 45.0627 43.1211V46.2351C45.0627 46.3054 45.0348 46.3728 44.9851 46.4225C44.9354 46.4722 44.868 46.5001 44.7977 46.5001H40.9017C40.8314 46.5001 40.764 46.4722 40.7143 46.4225C40.6646 46.3728 40.6367 46.3054 40.6367 46.2351V44.9511C40.6367 44.7522 40.5577 44.5614 40.417 44.4208C40.2764 44.2801 40.0856 44.2011 39.8867 44.2011C39.6878 44.2011 39.497 44.2801 39.3564 44.4208C39.2157 44.5614 39.1367 44.7522 39.1367 44.9511V46.2351C39.1372 46.7031 39.3234 47.1517 39.6543 47.4826C39.9851 47.8135 40.4338 47.9996 40.9017 48.0001H44.8017C45.2697 47.9996 45.7183 47.8135 46.0492 47.4826C46.3801 47.1517 46.5662 46.7031 46.5667 46.2351V43.1211C46.5667 43.0223 46.5472 42.9244 46.5093 42.8332C46.4713 42.7419 46.4157 42.6591 46.3456 42.5894C46.2756 42.5197 46.1924 42.4645 46.101 42.427C46.0095 42.3896 45.9115 42.3706 45.8127 42.3711Z" fill="#FF8607"/>
<path d="M8.06081 44.2001C7.8619 44.2001 7.67113 44.2791 7.53048 44.4198C7.38983 44.5604 7.31081 44.7512 7.31081 44.9501V46.2341C7.31081 46.3042 7.28303 46.3715 7.23355 46.4211C7.18407 46.4708 7.11692 46.4988 7.04681 46.4991H3.14681C3.0767 46.4988 3.00956 46.4708 2.96008 46.4211C2.91059 46.3715 2.88281 46.3042 2.88281 46.2341V43.1211C2.88281 42.9222 2.80379 42.7314 2.66314 42.5908C2.52249 42.4501 2.33173 42.3711 2.13281 42.3711C1.9339 42.3711 1.74313 42.4501 1.60248 42.5908C1.46183 42.7314 1.38281 42.9222 1.38281 43.1211V46.2351C1.38308 46.7026 1.5687 47.1509 1.899 47.4818C2.2293 47.8126 2.67731 47.999 3.14481 48.0001H7.04481C7.51267 47.9996 7.96119 47.8134 8.29192 47.4825C8.62265 47.1516 8.80855 46.7029 8.80881 46.2351V44.9511C8.80908 44.7524 8.73045 44.5616 8.5902 44.4208C8.44995 44.28 8.25955 44.2006 8.06081 44.2001Z" fill="#FF8607"/>
<path d="M46.4281 18.8548L43.9281 18.4228C43.5628 18.3554 43.1855 18.4144 42.8583 18.5902C42.5311 18.766 42.2735 19.048 42.1281 19.3898L41.9931 19.6898L40.2211 15.5098C39.8205 14.5513 39.1812 13.7114 38.3641 13.0701C37.547 12.4287 36.5792 12.0072 35.5531 11.8458C31.7294 11.2653 27.8665 10.9825 23.9991 10.9998C20.1316 10.9828 16.2687 11.266 12.4451 11.8468C11.419 12.0081 10.4514 12.4294 9.63427 13.0706C8.81715 13.7118 8.1778 14.5515 7.77709 15.5098L5.99909 19.6938L5.87309 19.3998C5.72877 19.0565 5.47188 18.7727 5.14471 18.5949C4.81754 18.4172 4.4396 18.3561 4.07309 18.4218L1.57309 18.8548C1.16739 18.9221 0.798737 19.1312 0.532823 19.4449C0.26691 19.7586 0.121002 20.1565 0.121094 20.5678V21.0588C0.121468 21.4546 0.256516 21.8386 0.504039 22.1476C0.751562 22.4565 1.09683 22.6721 1.48309 22.7588L3.85709 23.2948L2.80509 24.8998C1.89355 26.2866 1.40856 27.9102 1.41009 29.5698V38.0998C1.41009 41.3188 3.65209 43.3998 7.12409 43.3998H40.8741C44.3461 43.3998 46.5881 41.3198 46.5881 38.0998V29.5658C46.5896 27.9062 46.1046 26.2826 45.1931 24.8958L44.1411 23.2958L46.5071 22.7618C46.8945 22.6761 47.2411 22.4611 47.49 22.1521C47.7388 21.8431 47.875 21.4585 47.8761 21.0618V20.5708C47.8773 20.1595 47.7323 19.7613 47.4671 19.447C47.2019 19.1327 46.8337 18.9228 46.4281 18.8548ZM1.80609 21.2908C1.75346 21.2789 1.70643 21.2495 1.67279 21.2073C1.63916 21.1651 1.62092 21.1127 1.62109 21.0588V20.5678C1.62028 20.5111 1.64014 20.4561 1.67695 20.413C1.71376 20.37 1.76501 20.3418 1.82109 20.3338L4.33209 19.8998C4.36732 19.8934 4.40364 19.9001 4.43435 19.9185C4.46505 19.9368 4.48805 19.9657 4.49909 19.9998L5.11209 21.3858L4.73809 21.9558L1.80609 21.2908ZM45.0881 35.7698H4.81109C4.61218 35.7698 4.42142 35.8488 4.28076 35.9894C4.14011 36.1301 4.06109 36.3209 4.06109 36.5198C4.06109 36.7187 4.14011 36.9095 4.28076 37.0501C4.42142 37.1908 4.61218 37.2698 4.81109 37.2698H45.0881V38.0998C45.0881 40.4778 43.5131 41.8998 40.8741 41.8998H7.12409C4.48509 41.8998 2.91009 40.4788 2.91009 38.0998V29.5658C2.90905 28.1984 3.30849 26.8607 4.05909 25.7178L6.42309 22.1118H39.1441C39.343 22.1118 39.5338 22.0328 39.6744 21.8921C39.8151 21.7515 39.8941 21.5607 39.8941 21.3618C39.8941 21.1629 39.8151 20.9721 39.6744 20.8314C39.5338 20.6908 39.343 20.6118 39.1441 20.6118H7.24209L9.15809 16.0998C9.45965 15.3759 9.94173 14.7413 10.5583 14.2567C11.1749 13.7721 11.9054 13.4537 12.6801 13.3318C16.4258 12.7612 20.2102 12.483 23.9991 12.4998C27.7879 12.482 31.5723 12.7592 35.3181 13.3288C36.0931 13.451 36.8238 13.7699 37.4404 14.255C38.057 14.7401 38.5389 15.3753 38.8401 16.0998L41.0321 21.2668C41.0491 21.3081 41.0702 21.3476 41.0951 21.3848L43.9391 25.7218C44.6897 26.8647 45.0891 28.2024 45.0881 29.5698V35.7698ZM46.3761 21.0588C46.3761 21.1138 46.357 21.1671 46.3222 21.2098C46.2874 21.2524 46.239 21.2817 46.1851 21.2928L43.2631 21.9528L42.8891 21.3828L43.5061 19.9828C43.52 19.9525 43.5435 19.9276 43.573 19.912C43.6024 19.8965 43.6362 19.8911 43.6691 19.8968L46.1751 20.3308C46.2312 20.3388 46.2824 20.367 46.3192 20.41C46.356 20.4531 46.3759 20.5081 46.3751 20.5648L46.3761 21.0588Z" fill="#FF8607"/>
<path d="M1.80609 21.2908C1.75346 21.2789 1.70643 21.2495 1.67279 21.2073C1.63916 21.1651 1.62092 21.1127 1.62109 21.0588V20.5678C1.62028 20.5111 1.64014 20.4561 1.67695 20.413C1.71376 20.37 1.76501 20.3418 1.82109 20.3338L4.33209 19.8998C4.36732 19.8934 4.40364 19.9001 4.43435 19.9185C4.46505 19.9368 4.48805 19.9657 4.49909 19.9998L5.11209 21.3858L4.73809 21.9558L1.80609 21.2908Z" fill="#FF8607"/>
<path d="M46.3761 21.0588C46.3761 21.1138 46.357 21.1671 46.3222 21.2098C46.2874 21.2524 46.239 21.2817 46.1851 21.2928L43.2631 21.9528L42.8891 21.3828L43.5061 19.9828C43.52 19.9525 43.5435 19.9276 43.573 19.912C43.6024 19.8965 43.6362 19.8911 43.6691 19.8968L46.1751 20.3308C46.2312 20.3388 46.2824 20.367 46.3192 20.41C46.356 20.4531 46.3759 20.5081 46.3751 20.5648L46.3761 21.0588Z" fill="#FF8607"/>
</g>
<defs>
<clipPath id="clip0_13343_7788">
<rect width="48" height="48" fill="white"/>
</clipPath>
</defs>
</svg>
