<svg width="48" height="48" viewBox="0 0 48 48" fill="none" xmlns="http://www.w3.org/2000/svg">
<g clip-path="url(#clip0_13343_7704)">
<path d="M47.9975 31.3236L47.579 16.5541C47.5389 15.1381 46.1111 13.8703 44.5902 13.8952C43.8528 13.907 41.4482 14.3087 41.4659 18.9824L41.4965 27.0055C41.4976 27.2858 41.4711 27.554 41.416 27.8131C41.3196 27.6693 41.2079 27.5329 41.0811 27.4059C40.0619 26.3868 38.3916 26.3752 37.2777 27.3791C37.2526 27.4017 37.2291 27.426 37.2073 27.4518C35.9071 28.9891 34.3128 30.3327 33.0318 31.4123C32.5846 31.7892 32.1623 32.1451 31.8164 32.457C30.3904 33.7421 30.2004 35.5232 30.2026 37.0958L30.2171 47.2507C30.2178 47.6646 30.5533 47.9996 30.9671 47.9996L39.1555 47.9997C39.3545 47.9997 39.5451 47.9207 39.6859 47.7801C39.8265 47.6394 39.9055 47.4487 39.9055 47.2497V41.8347L46.3663 35.3738C47.4769 34.2637 48.041 32.863 47.9975 31.3236ZM45.3056 34.3132L38.6251 40.9938C38.4845 41.1344 38.4054 41.3252 38.4054 41.5241V46.4998L31.716 46.4997L31.7025 37.0938C31.7006 35.7892 31.8348 34.4596 32.8206 33.5712C33.1479 33.2762 33.542 32.944 33.9983 32.5595C35.3109 31.4533 36.9417 30.0789 38.3162 28.4635C38.8431 28.0161 39.5683 28.0147 40.0205 28.4668C40.2519 28.6982 40.3784 29.0325 40.3765 29.3581C40.3745 29.7086 40.2056 29.9431 39.994 30.2035L34.8696 35.3282C34.5767 35.6211 34.5767 36.0959 34.8696 36.3888C35.0161 36.5352 35.2079 36.6084 35.3999 36.6084C35.5918 36.6084 35.7838 36.5352 35.9302 36.3888C35.9302 36.3888 41.0798 31.239 41.0812 31.2377C41.3284 30.9904 41.5292 30.6926 41.7495 30.4214C42.5933 29.3827 43.0012 28.2636 42.9965 27L42.9659 18.9769C42.9575 16.7508 43.5736 15.4118 44.6142 15.3951C44.6208 15.395 44.6273 15.395 44.6338 15.395C45.3365 15.395 46.0626 15.9958 46.0795 16.5967L46.498 31.366C46.53 32.4986 46.1288 33.4902 45.3056 34.3132ZM16.1836 32.4573C15.8377 32.1454 15.4152 31.7893 14.9679 31.4124C13.6869 30.3328 12.0927 28.9893 10.7926 27.4521C10.7708 27.4263 10.7473 27.402 10.7222 27.3794C9.60862 26.3753 7.9379 26.3871 6.91893 27.4062C6.792 27.5332 6.68024 27.6697 6.58387 27.8134C6.52874 27.5542 6.50231 27.2861 6.50343 27.0058L6.53399 18.9827C6.55162 14.309 4.14712 13.9072 3.40968 13.8954C3.39524 13.8952 3.38081 13.8952 3.36628 13.8952C1.85868 13.8952 0.460589 15.1519 0.420932 16.5544L0.00233857 31.3238C-0.0411614 32.8632 0.522932 34.2638 1.6334 35.3742L8.09428 41.8351V47.25C8.09428 47.4489 8.17331 47.6396 8.31393 47.7803C8.45465 47.921 8.64534 48 8.84428 48L17.0327 47.9999C17.4465 47.9999 17.782 47.6647 17.7827 47.251L17.7973 37.0961C17.7995 35.5234 17.6095 33.7424 16.1836 32.4573ZM16.2837 46.4999L9.59428 46.5L9.59437 41.5243C9.59437 41.3254 9.51534 41.1346 9.37471 40.994L2.69409 34.3134C1.87096 33.4904 1.46971 32.4988 1.50178 31.3662L1.92028 16.5967C1.93724 15.9957 2.66334 15.3951 3.3659 15.3951C3.37246 15.3951 3.37903 15.3951 3.38559 15.3952C4.42621 15.4118 5.04234 16.7508 5.0339 18.977L5.00334 27.0001C4.99856 28.2637 5.40646 29.3828 6.25031 30.4216C6.47128 30.6937 6.67537 30.9853 6.91996 31.2391L12.0696 36.3889C12.2161 36.5354 12.4079 36.6085 12.5999 36.6085C12.7918 36.6085 12.9838 36.5353 13.1302 36.3889C13.4231 36.096 13.4231 35.6212 13.1302 35.3283L8.00559 30.2034C7.87743 30.0457 7.75453 29.9051 7.68871 29.709C7.54509 29.2811 7.66153 28.7849 7.97943 28.4669C8.4314 28.0148 9.15684 28.0163 9.68362 28.4637C11.058 30.079 12.6888 31.4534 14.0012 32.5596C14.4576 32.9442 14.8518 33.2764 15.1792 33.5716C16.1649 34.46 16.299 35.7895 16.2972 37.0941L16.2837 46.4999ZM33.3756 17.3331V26.5312C33.3756 26.9454 33.7114 27.2812 34.1256 27.2812C34.5397 27.2812 34.8756 26.9454 34.8756 26.5312V17.3331C34.8756 15.0313 33.1041 13.2719 30.0156 12.5058C28.6132 12.1579 27.2126 11.9303 25.8181 11.8226C27.8513 10.8781 29.3064 8.39663 29.3064 5.49159C29.3065 2.10422 27.2731 0 23.9999 0C20.7267 0 18.6933 2.10422 18.6933 5.49159C18.6933 8.39081 20.1427 10.8681 22.1694 11.8168C20.7599 11.9219 19.3611 12.1517 17.978 12.5074C14.8479 13.312 13.1242 15.0258 13.1242 17.3331V26.5312C13.1242 26.9454 13.4601 27.2812 13.8742 27.2812C14.2884 27.2812 14.6242 26.9454 14.6242 26.5312V17.3331C14.6242 15.3372 16.6511 14.3973 18.3516 13.9601C22.032 13.0136 25.8349 13.0142 29.6544 13.9617C31.0442 14.3064 33.3756 15.2028 33.3756 17.3331ZM20.1933 5.49159C20.1933 2.01853 22.5783 1.5 23.9999 1.5C25.4215 1.5 27.8065 2.01853 27.8065 5.49159C27.8065 8.38022 26.0989 10.7303 23.9999 10.7303C21.9009 10.7303 20.1933 8.38022 20.1933 5.49159ZM19.2254 19.4475V26.5312C19.2254 26.9454 18.8896 27.2812 18.4754 27.2812C18.0612 27.2812 17.7254 26.9454 17.7254 26.5312V19.4475C17.7254 19.0333 18.0612 18.6975 18.4754 18.6975C18.8896 18.6975 19.2254 19.0333 19.2254 19.4475ZM30.2743 26.5312C30.2743 26.9454 29.9385 27.2812 29.5243 27.2812C29.1101 27.2812 28.7743 26.9454 28.7743 26.5312V19.4475C28.7743 19.0333 29.1101 18.6975 29.5243 18.6975C29.9385 18.6975 30.2743 19.0333 30.2743 19.4475V26.5312Z" fill="#FF8607"/>
<path d="M17 44H9V47H17V44Z" fill="#FF8607"/>
<path d="M39 44H31V47H39V44Z" fill="#FF8607"/>
</g>
<defs>
<clipPath id="clip0_13343_7704">
<rect width="48" height="48" fill="white"/>
</clipPath>
</defs>
</svg>
