<svg width="48" height="48" viewBox="0 0 48 48" fill="none" xmlns="http://www.w3.org/2000/svg">
<path d="M42.75 4.5H38.25V3.75C38.25 3.15326 38.0129 2.58097 37.591 2.15901C37.169 1.73705 36.5967 1.5 36 1.5C35.4033 1.5 34.831 1.73705 34.409 2.15901C33.9871 2.58097 33.75 3.15326 33.75 3.75V4.5H26.25V3.75C26.25 3.15326 26.0129 2.58097 25.591 2.15901C25.169 1.73705 24.5967 1.5 24 1.5C23.4033 1.5 22.831 1.73705 22.409 2.15901C21.9871 2.58097 21.75 3.15326 21.75 3.75V4.5H14.25V3.75C14.25 3.15326 14.0129 2.58097 13.591 2.15901C13.169 1.73705 12.5967 1.5 12 1.5C11.4033 1.5 10.831 1.73705 10.409 2.15901C9.98705 2.58097 9.75 3.15326 9.75 3.75V4.5H5.25C4.25578 4.50112 3.3026 4.89656 2.59958 5.59958C1.89656 6.3026 1.50112 7.25578 1.5 8.25V42.75C1.50112 43.7442 1.89656 44.6974 2.59958 45.4004C3.3026 46.1034 4.25578 46.4989 5.25 46.5H42.75C43.7442 46.4989 44.6974 46.1034 45.4004 45.4004C46.1034 44.6974 46.4989 43.7442 46.5 42.75V8.25C46.4989 7.25578 46.1034 6.3026 45.4004 5.59958C44.6974 4.89656 43.7442 4.50112 42.75 4.5ZM35.25 3.75C35.25 3.55109 35.329 3.36032 35.4697 3.21967C35.6103 3.07902 35.8011 3 36 3C36.1989 3 36.3897 3.07902 36.5303 3.21967C36.671 3.36032 36.75 3.55109 36.75 3.75V8.25C36.75 8.44891 36.671 8.63968 36.5303 8.78033C36.3897 8.92098 36.1989 9 36 9C35.8011 9 35.6103 8.92098 35.4697 8.78033C35.329 8.63968 35.25 8.44891 35.25 8.25V3.75ZM23.25 3.75C23.25 3.55109 23.329 3.36032 23.4697 3.21967C23.6103 3.07902 23.8011 3 24 3C24.1989 3 24.3897 3.07902 24.5303 3.21967C24.671 3.36032 24.75 3.55109 24.75 3.75V8.25C24.75 8.44891 24.671 8.63968 24.5303 8.78033C24.3897 8.92098 24.1989 9 24 9C23.8011 9 23.6103 8.92098 23.4697 8.78033C23.329 8.63968 23.25 8.44891 23.25 8.25V3.75ZM11.25 3.75C11.25 3.55109 11.329 3.36032 11.4697 3.21967C11.6103 3.07902 11.8011 3 12 3C12.1989 3 12.3897 3.07902 12.5303 3.21967C12.671 3.36032 12.75 3.55109 12.75 3.75V8.25C12.75 8.44891 12.671 8.63968 12.5303 8.78033C12.3897 8.92098 12.1989 9 12 9C11.8011 9 11.6103 8.92098 11.4697 8.78033C11.329 8.63968 11.25 8.44891 11.25 8.25V3.75ZM5.25 6H9.75V8.25C9.75 8.84674 9.98705 9.41903 10.409 9.84099C10.831 10.2629 11.4033 10.5 12 10.5C12.5967 10.5 13.169 10.2629 13.591 9.84099C14.0129 9.41903 14.25 8.84674 14.25 8.25V6H21.75V8.25C21.75 8.84674 21.9871 9.41903 22.409 9.84099C22.831 10.2629 23.4033 10.5 24 10.5C24.5967 10.5 25.169 10.2629 25.591 9.84099C26.0129 9.41903 26.25 8.84674 26.25 8.25V6H33.75V8.25C33.75 8.84674 33.9871 9.41903 34.409 9.84099C34.831 10.2629 35.4033 10.5 36 10.5C36.5967 10.5 37.169 10.2629 37.591 9.84099C38.0129 9.41903 38.25 8.84674 38.25 8.25V6H42.75C43.3465 6.00069 43.9184 6.23797 44.3402 6.65978C44.762 7.08158 44.9993 7.65348 45 8.25V13.5H3V8.25C3.00069 7.65348 3.23797 7.08158 3.65978 6.65978C4.08158 6.23797 4.65348 6.00069 5.25 6ZM42.75 45H5.25C4.65348 44.9993 4.08158 44.762 3.65978 44.3402C3.23797 43.9184 3.00069 43.3465 3 42.75V15H45V42.75C44.9993 43.3465 44.762 43.9184 44.3402 44.3402C43.9184 44.762 43.3465 44.9993 42.75 45Z" fill="#FF8607"/>
<path d="M41.25 20.25H38.25C38.0511 20.25 37.8603 20.329 37.7197 20.4697C37.579 20.6103 37.5 20.8011 37.5 21V24C37.5 24.1989 37.579 24.3897 37.7197 24.5303C37.8603 24.671 38.0511 24.75 38.25 24.75H41.25C41.4489 24.75 41.6397 24.671 41.7803 24.5303C41.921 24.3897 42 24.1989 42 24V21C42 20.8011 41.921 20.6103 41.7803 20.4697C41.6397 20.329 41.4489 20.25 41.25 20.25ZM40.5 23.25H39V21.75H40.5V23.25Z" fill="#FF8607"/>
<path d="M26.25 35.25H23.25C23.0511 35.25 22.8603 35.329 22.7197 35.4697C22.579 35.6103 22.5 35.8011 22.5 36V39C22.5 39.1989 22.579 39.3897 22.7197 39.5303C22.8603 39.671 23.0511 39.75 23.25 39.75H26.25C26.4489 39.75 26.6397 39.671 26.7803 39.5303C26.921 39.3897 27 39.1989 27 39V36C27 35.8011 26.921 35.6103 26.7803 35.4697C26.6397 35.329 26.4489 35.25 26.25 35.25ZM25.5 38.25H24V36.75H25.5V38.25Z" fill="#FF8607"/>
<path d="M18.75 20.25H15.75C15.5511 20.25 15.3603 20.329 15.2197 20.4697C15.079 20.6103 15 20.8011 15 21V24C15 24.1989 15.079 24.3897 15.2197 24.5303C15.3603 24.671 15.5511 24.75 15.75 24.75H18.75C18.9489 24.75 19.1397 24.671 19.2803 24.5303C19.421 24.3897 19.5 24.1989 19.5 24V21C19.5 20.8011 19.421 20.6103 19.2803 20.4697C19.1397 20.329 18.9489 20.25 18.75 20.25ZM18 23.25H16.5V21.75H18V23.25Z" fill="#FF8607"/>
<path d="M11.25 27.75H8.25C8.05109 27.75 7.86032 27.829 7.71967 27.9697C7.57902 28.1103 7.5 28.3011 7.5 28.5V31.5C7.5 31.6989 7.57902 31.8897 7.71967 32.0303C7.86032 32.171 8.05109 32.25 8.25 32.25H11.25C11.4489 32.25 11.6397 32.171 11.7803 32.0303C11.921 31.8897 12 31.6989 12 31.5V28.5C12 28.3011 11.921 28.1103 11.7803 27.9697C11.6397 27.829 11.4489 27.75 11.25 27.75ZM10.5 30.75H9V29.25H10.5V30.75Z" fill="#FF8607"/>
<path d="M18.75 27.75H15.75C15.5511 27.75 15.3603 27.829 15.2197 27.9697C15.079 28.1103 15 28.3011 15 28.5V31.5C15 31.6989 15.079 31.8897 15.2197 32.0303C15.3603 32.171 15.5511 32.25 15.75 32.25H18.75C18.9489 32.25 19.1397 32.171 19.2803 32.0303C19.421 31.8897 19.5 31.6989 19.5 31.5V28.5C19.5 28.3011 19.421 28.1103 19.2803 27.9697C19.1397 27.829 18.9489 27.75 18.75 27.75ZM18 30.75H16.5V29.25H18V30.75Z" fill="#FF8607"/>
<path d="M11.25 35.25H8.25C8.05109 35.25 7.86032 35.329 7.71967 35.4697C7.57902 35.6103 7.5 35.8011 7.5 36V39C7.5 39.1989 7.57902 39.3897 7.71967 39.5303C7.86032 39.671 8.05109 39.75 8.25 39.75H11.25C11.4489 39.75 11.6397 39.671 11.7803 39.5303C11.921 39.3897 12 39.1989 12 39V36C12 35.8011 11.921 35.6103 11.7803 35.4697C11.6397 35.329 11.4489 35.25 11.25 35.25ZM10.5 38.25H9V36.75H10.5V38.25Z" fill="#FF8607"/>
<path d="M18.75 35.25H15.75C15.5511 35.25 15.3603 35.329 15.2197 35.4697C15.079 35.6103 15 35.8011 15 36V39C15 39.1989 15.079 39.3897 15.2197 39.5303C15.3603 39.671 15.5511 39.75 15.75 39.75H18.75C18.9489 39.75 19.1397 39.671 19.2803 39.5303C19.421 39.3897 19.5 39.1989 19.5 39V36C19.5 35.8011 19.421 35.6103 19.2803 35.4697C19.1397 35.329 18.9489 35.25 18.75 35.25ZM18 38.25H16.5V36.75H18V38.25Z" fill="#FF8607"/>
<path d="M34.6129 23.3422L30.8629 22.7692L29.1786 19.1813C29.1181 19.0524 29.0221 18.9433 28.9018 18.867C28.7816 18.7906 28.6421 18.75 28.4996 18.75C28.3572 18.75 28.2177 18.7906 28.0975 18.867C27.9772 18.9433 27.8812 19.0524 27.8207 19.1813L26.1371 22.7692L22.3871 23.3422C22.2507 23.363 22.1227 23.421 22.0172 23.5098C21.9116 23.5986 21.8326 23.7148 21.7888 23.8457C21.745 23.9765 21.7381 24.1169 21.769 24.2514C21.7998 24.3858 21.8672 24.5092 21.9636 24.6079L24.6993 27.4117L24.0524 31.3797C24.03 31.5184 24.0471 31.6606 24.1016 31.7902C24.1561 31.9197 24.2459 32.0312 24.3608 32.1122C24.4756 32.1931 24.6109 32.2402 24.7512 32.248C24.8915 32.2558 25.0311 32.2241 25.1543 32.1563L28.4996 30.3072L31.845 32.1563C31.9682 32.2244 32.1081 32.2565 32.2486 32.2488C32.3892 32.2412 32.5247 32.1941 32.6398 32.1131C32.7549 32.032 32.8448 31.9202 32.8993 31.7904C32.9538 31.6607 32.9707 31.5182 32.9481 31.3792L32.3012 27.4112L35.0369 24.6074C35.1333 24.5087 35.2007 24.3854 35.2315 24.2509C35.2624 24.1164 35.2555 23.976 35.2117 23.8452C35.1679 23.7144 35.0889 23.5982 34.9833 23.5093C34.8778 23.4205 34.7493 23.363 34.6129 23.3422ZM30.9628 26.6345C30.8808 26.7185 30.8197 26.8206 30.7844 26.9325C30.7491 27.0445 30.7405 27.1631 30.7594 27.279L31.2188 30.0963L28.8623 28.7932C28.7512 28.7318 28.6264 28.6996 28.4994 28.6996C28.3725 28.6996 28.2477 28.7318 28.1366 28.7932L25.7801 30.0963L26.2395 27.279C26.2584 27.1631 26.2498 27.0445 26.2145 26.9325C26.1792 26.8206 26.1181 26.7185 26.0361 26.6345L24.0559 24.6046L26.759 24.1921C26.8807 24.1735 26.996 24.1252 27.0946 24.0515C27.1933 23.9777 27.2723 23.8809 27.3246 23.7694L28.4996 21.2652L29.6748 23.7689C29.7271 23.8804 29.8061 23.9773 29.9047 24.051C30.0034 24.1247 30.1187 24.173 30.2404 24.1916L32.9435 24.6041L30.9628 26.6345Z" fill="#FF8607"/>
<path d="M30.9628 26.6345C30.8808 26.7185 30.8197 26.8206 30.7844 26.9325C30.7491 27.0445 30.7405 27.1631 30.7594 27.279L31.2188 30.0963L28.8623 28.7932C28.7512 28.7318 28.6264 28.6996 28.4994 28.6996C28.3725 28.6996 28.2477 28.7318 28.1366 28.7932L25.7801 30.0963L26.2395 27.279C26.2584 27.1631 26.2498 27.0445 26.2145 26.9325C26.1792 26.8206 26.1181 26.7185 26.0361 26.6345L24.0559 24.6046L26.759 24.1921C26.8807 24.1735 26.996 24.1252 27.0946 24.0515C27.1933 23.9777 27.2723 23.8809 27.3246 23.7694L28.4996 21.2652L29.6748 23.7689C29.7271 23.8804 29.8061 23.9773 29.9047 24.051C30.0034 24.1247 30.1187 24.173 30.2404 24.1916L32.9435 24.6041L30.9628 26.6345Z" fill="#FF8607"/>
<path d="M41.25 27.75H38.25C38.0511 27.75 37.8603 27.829 37.7197 27.9697C37.579 28.1103 37.5 28.3011 37.5 28.5V31.5C37.5 31.6989 37.579 31.8897 37.7197 32.0303C37.8603 32.171 38.0511 32.25 38.25 32.25H41.25C41.4489 32.25 41.6397 32.171 41.7803 32.0303C41.921 31.8897 42 31.6989 42 31.5V28.5C42 28.3011 41.921 28.1103 41.7803 27.9697C41.6397 27.829 41.4489 27.75 41.25 27.75ZM40.5 30.75H39V29.25H40.5V30.75Z" fill="#FF8607"/>
<path d="M41.25 35.25H38.25C38.0511 35.25 37.8603 35.329 37.7197 35.4697C37.579 35.6103 37.5 35.8011 37.5 36V39C37.5 39.1989 37.579 39.3897 37.7197 39.5303C37.8603 39.671 38.0511 39.75 38.25 39.75H41.25C41.4489 39.75 41.6397 39.671 41.7803 39.5303C41.921 39.3897 42 39.1989 42 39V36C42 35.8011 41.921 35.6103 41.7803 35.4697C41.6397 35.329 41.4489 35.25 41.25 35.25ZM40.5 38.25H39V36.75H40.5V38.25Z" fill="#FF8607"/>
<path d="M33.75 35.25H30.75C30.5511 35.25 30.3603 35.329 30.2197 35.4697C30.079 35.6103 30 35.8011 30 36V39C30 39.1989 30.079 39.3897 30.2197 39.5303C30.3603 39.671 30.5511 39.75 30.75 39.75H33.75C33.9489 39.75 34.1397 39.671 34.2803 39.5303C34.421 39.3897 34.5 39.1989 34.5 39V36C34.5 35.8011 34.421 35.6103 34.2803 35.4697C34.1397 35.329 33.9489 35.25 33.75 35.25ZM33 38.25H31.5V36.75H33V38.25Z" fill="#FF8607"/>
</svg>
