<svg width="48" height="48" viewBox="0 0 48 48" fill="none" xmlns="http://www.w3.org/2000/svg">
<g clip-path="url(#clip0_13343_7710)">
<path fill-rule="evenodd" clip-rule="evenodd" d="M27.7366 12.1964C27.5229 12.1964 27.3172 12.1091 27.164 11.9477C27.0363 11.8133 26.957 11.6548 26.8118 11.367C26.5565 10.859 26.0807 9.91137 25.0968 8.66539C24.6896 8.1493 24.5256 7.9732 24.41 7.85903C24.3199 7.77035 24.0901 7.55529 23.7594 7.31197C23.5094 7.60636 23.2231 7.85499 22.9032 8.05389C21.9529 8.64663 21.0188 8.62374 20.2675 8.60633L20.2151 8.60498C20.1922 8.60498 17.8992 8.55257 15.4517 8.72193C13.7192 8.84157 13.2111 9.0525 12.8402 9.25687C12.5028 9.44366 11.8751 9.79047 11.5861 10.4329C11.4611 10.7098 11.4248 10.9813 11.394 11.199C11.3778 11.32 11.363 11.4248 11.3348 11.5296C11.2125 11.9785 10.8684 12.164 10.5875 12.1868C10.4181 12.2016 9.99476 12.1773 9.70718 11.6505C9.63466 11.5175 9.56465 11.344 9.50021 11.1371C9.38191 10.7607 9.2865 10.2902 9.23812 9.84541C9.05672 8.19885 9.49348 6.84947 9.76902 6.1922C9.94773 5.76613 10.4854 4.65864 11.609 3.57126C13.5552 1.69089 15.8805 1.20837 17.4195 0.88848C18.7031 0.622356 19.6009 0.583401 20.7299 0.557907C21.609 0.537715 22.6479 0.575408 23.6989 1.01081C24.2366 1.23251 24.6291 1.49738 24.9355 1.84419C25.1694 2.11031 25.2634 2.31872 25.3722 2.55926C25.4287 2.68294 25.4919 2.82404 25.5939 3.02025C25.8493 3.50546 26.0038 3.79977 26.2592 4.06455C26.3747 4.18419 26.4191 4.20977 26.5831 4.30644C26.7579 4.40993 26.9971 4.54977 27.395 4.84812C27.8842 5.21504 28.2081 5.45836 28.5576 5.87904C28.7808 6.1492 29.2471 6.71098 29.4313 7.5457C29.5496 8.07795 29.4945 8.49729 29.403 9.19226C29.3439 9.64121 29.0401 10.4651 28.9475 10.7057C28.555 11.7366 28.3561 12.035 27.9824 12.156C27.9032 12.1831 27.8185 12.1964 27.7366 12.1964ZM23.5753 5.55276C23.9476 5.55276 24.2702 5.77858 24.4745 5.92111L24.496 5.93592C24.9839 6.27457 25.3306 6.59311 25.4932 6.75314C25.6692 6.9252 25.8763 7.15371 26.3131 7.70615C26.9261 8.48298 27.3601 9.15372 27.6719 9.69135C27.7741 9.39427 27.8533 9.12554 27.8708 8.99108C27.9541 8.34996 27.9784 8.13491 27.9219 7.87956C27.8184 7.41041 27.5469 7.08388 27.3682 6.86748C27.1357 6.58655 26.9126 6.41996 26.469 6.08652C26.1412 5.84051 25.9529 5.72894 25.8011 5.64026C25.5995 5.52197 25.4099 5.41048 25.1478 5.13763C24.7392 4.71425 24.5135 4.28415 24.2271 3.73978C24.1021 3.50185 24.0229 3.32449 23.9637 3.19542C23.8737 2.99652 23.8548 2.95622 23.7769 2.86754C23.6788 2.75598 23.5148 2.60806 23.1102 2.44013C22.3267 2.1162 21.5216 2.08793 20.7674 2.10417C19.6881 2.12832 18.8938 2.16332 17.7365 2.40252C16.2903 2.7023 14.3105 3.11356 12.6869 4.68338C11.7434 5.59601 11.3079 6.52605 11.1977 6.78957C11.0229 7.20486 10.7689 7.96697 10.746 8.9199C10.8764 8.77342 11.0202 8.63359 11.1788 8.50326C11.5323 8.2103 11.8818 8.0167 12.0914 7.90109C12.7459 7.53813 13.4893 7.30431 15.3455 7.17533C17.8683 7.00058 20.1573 7.053 20.2528 7.05569L20.3065 7.05704C20.9342 7.07185 21.5283 7.08657 22.0834 6.73984C22.3737 6.55844 22.6224 6.3004 22.8214 5.97235C22.9464 5.76537 23.1453 5.62285 23.3832 5.57177C23.449 5.55806 23.5121 5.55276 23.5753 5.55276Z" fill="#FF8607"/>
<path fill-rule="evenodd" clip-rule="evenodd" d="M19.3618 25.0863C18.8415 25.0863 18.2502 25.0365 17.6132 24.8954C17.046 24.7703 15.5689 24.351 14.1185 23.1628C13.4237 22.593 12.1481 21.3362 11.4236 19.3201C11.2261 18.7704 11.097 18.1791 11.0231 17.7745C10.5163 17.5473 10.0513 17.2046 9.65745 16.7651C9.15482 16.2033 8.80397 15.5232 8.64403 14.7987C8.31875 13.3257 8.81878 11.8793 10.0163 10.8337C10.3389 10.5528 10.8281 10.585 11.109 10.9077C11.3899 11.2302 11.3577 11.7195 11.035 12.0003C9.99602 12.9076 10.0377 13.9345 10.156 14.4654C10.3656 15.4143 11.0793 16.2181 11.9315 16.4654C12.2259 16.5514 12.4422 16.8013 12.4825 17.1052C12.5417 17.5393 12.6801 18.2435 12.8804 18.7987C13.5014 20.5271 14.6398 21.5903 15.0994 21.968C16.2916 22.9438 17.4879 23.2852 17.9462 23.3873C19.2526 23.6749 20.3292 23.4854 20.7324 23.39C21.8319 23.1305 22.5724 22.6198 22.8897 22.4021C23.1182 22.2448 23.715 21.8012 24.3225 21.0821C25.2001 20.0431 25.8467 18.6305 26.1961 16.9948C26.262 16.6843 26.5119 16.445 26.8252 16.3926C27.1665 16.3348 27.5389 16.0404 27.8453 15.5862C28.1786 15.0903 28.3951 14.4666 28.4381 13.8766C28.4838 13.2449 28.3575 12.4331 27.4919 12.1548C27.0847 12.0244 26.8615 11.5876 26.9919 11.1803C27.1224 10.7731 27.5591 10.55 27.9664 10.6804C28.7003 10.917 29.2715 11.3861 29.6169 12.0392C29.9086 12.589 30.0349 13.2623 29.9826 13.9868C29.9207 14.8376 29.6103 15.7354 29.1304 16.4491C28.7071 17.0782 28.1789 17.5325 27.6077 17.7676C27.1843 19.4813 26.4786 20.9303 25.5068 22.0807C24.8052 22.9114 24.1171 23.4369 23.7689 23.6761C23.414 23.9195 22.4719 24.5686 21.0902 24.8952C20.7179 24.9813 20.1144 25.0863 19.3618 25.0863Z" fill="#FF8607"/>
<path fill-rule="evenodd" clip-rule="evenodd" d="M14.7278 28.0529C14.6122 28.0529 14.4953 28.0274 14.3838 27.9723C14.0007 27.7828 13.8435 27.3178 14.0343 26.9348C14.2722 26.4549 14.6754 25.4926 14.7037 24.4347C14.7145 24.0194 14.6607 23.8299 14.5719 23.514C14.5478 23.4293 14.5209 23.3326 14.4926 23.2264C14.3864 22.8125 14.6364 22.3904 15.0504 22.2842C15.4644 22.178 15.8865 22.428 15.9927 22.842C16.0156 22.928 16.0384 23.0114 16.0612 23.092C16.1634 23.4523 16.2696 23.8246 16.2521 24.475C16.2172 25.8299 15.7172 27.0287 15.4229 27.6215C15.287 27.8957 15.0127 28.0529 14.7278 28.0529Z" fill="#FF8607"/>
<path fill-rule="evenodd" clip-rule="evenodd" d="M24.1113 28.5607C23.8479 28.5607 23.5925 28.4262 23.4473 28.1857C22.9366 27.3362 22.3196 26.0029 22.2792 24.476C22.2617 23.8241 22.3679 23.4519 22.4702 23.093C22.493 23.0123 22.5158 22.9303 22.5387 22.843C22.6449 22.429 23.0669 22.179 23.481 22.2852C23.895 22.3913 24.145 22.8134 24.0388 23.2274C24.012 23.3322 23.9837 23.429 23.9595 23.515C23.8708 23.8295 23.8157 24.0203 23.8277 24.4357C23.8587 25.6266 24.3599 26.6991 24.7739 27.3886C24.9943 27.7555 24.876 28.2313 24.5091 28.4505C24.3842 28.5245 24.247 28.5607 24.1113 28.5607Z" fill="#FF8607"/>
<path fill-rule="evenodd" clip-rule="evenodd" d="M38.7311 47.4457H0.774485C0.348418 47.4457 0.00160682 47.1003 0.000344768 46.6743C-0.00773234 43.9753 0.115948 37.2295 1.46138 32.8909C1.81896 31.7403 2.25167 30.8008 2.82287 29.9352C3.30271 29.2095 4.68717 27.3842 7.1602 26.1275C9.42633 24.9743 11.5944 24.8036 13.0137 24.8627C13.1992 24.8708 13.3766 24.9447 13.511 25.0724L19.5903 30.7806L26.0055 25.0603C26.1386 24.9406 26.3093 24.8721 26.4894 24.864C27.9087 24.8048 30.0754 24.9768 32.3429 26.1287C34.816 27.3867 36.2004 29.2107 36.6802 29.9365C37.2527 30.8021 37.6855 31.7403 38.0417 32.8921C38.66 34.8827 39.0901 37.6058 39.3212 40.982C39.4463 42.8046 39.5095 44.7723 39.5026 46.6742C39.504 47.1017 39.1573 47.4457 38.7311 47.4457ZM19.7058 45.8974H37.9556C37.9448 44.2765 37.8844 42.6287 37.7782 41.0884C37.555 37.8303 37.1464 35.2268 36.5644 33.3505C36.2472 32.3303 35.8857 31.54 35.3897 30.79C34.9771 30.1663 33.7862 28.5978 31.6411 27.5078C29.8131 26.5777 28.0564 26.3828 26.8266 26.4017L20.0928 32.4056C19.7931 32.6717 19.3401 32.6663 19.0471 32.3921L12.6668 26.4002C11.4383 26.3841 9.68699 26.5789 7.86299 27.5064C5.71785 28.5964 4.52706 30.1649 4.11437 30.7885C3.61839 31.5385 3.25685 32.3275 2.93966 33.3476C2.35768 35.224 1.94903 37.8275 1.7259 41.0855C1.61972 42.6259 1.55923 44.2737 1.54846 45.8946L19.7058 45.8974Z" fill="#FF8607"/>
<path fill-rule="evenodd" clip-rule="evenodd" d="M8.1218 47.4457C7.69438 47.4457 7.34766 47.0989 7.34766 46.6715V37.7429C7.34766 37.3155 7.69447 36.9688 8.1218 36.9688C8.54913 36.9688 8.89594 37.3155 8.89594 37.7429V46.6715C8.89611 47.099 8.5493 47.4457 8.1218 47.4457Z" fill="#FF8607"/>
<path fill-rule="evenodd" clip-rule="evenodd" d="M32.0085 47.4457C31.5811 47.4457 31.2344 47.0989 31.2344 46.6715V37.7429C31.2344 37.3155 31.5811 36.9688 32.0085 36.9688C32.4359 36.9688 32.7827 37.3155 32.7827 37.7429V46.6715C32.7827 47.099 32.4359 47.4457 32.0085 47.4457Z" fill="#FF8607"/>
<path fill-rule="evenodd" clip-rule="evenodd" d="M35.1218 25.1053C34.6944 25.1053 34.3477 24.7586 34.3477 24.3311V2.3757C34.3477 1.94829 34.6944 1.60156 35.1218 1.60156C35.5492 1.60156 35.8959 1.94837 35.8959 2.3757V24.3311C35.896 24.7585 35.5492 25.1053 35.1218 25.1053Z" fill="#FF8607"/>
<path fill-rule="evenodd" clip-rule="evenodd" d="M47.2252 14.3885H35.1218C34.6944 14.3885 34.3477 14.0418 34.3477 13.6144V4.28109C34.3477 3.98544 34.5157 3.71662 34.7805 3.58621C35.0452 3.4558 35.3611 3.48811 35.595 3.66824L47.6984 13.0014C47.9604 13.203 48.0653 13.5512 47.9578 13.8643C47.8516 14.1776 47.5558 14.3885 47.2252 14.3885ZM35.896 12.8401H44.9537L35.896 5.85638V12.8401Z" fill="#FF8607"/>
<path fill-rule="evenodd" clip-rule="evenodd" d="M23.5818 44.6455H15.528C15.1006 44.6455 14.7539 44.2986 14.7539 43.8713V34.3943C14.7539 33.9668 15.1006 33.6201 15.528 33.6201H23.5818C24.0092 33.6201 24.3559 33.9668 24.3559 34.3943V43.8713C24.3559 44.3 24.0105 44.6455 23.5818 44.6455ZM16.3036 43.0971H22.8089V35.1684H16.3036V43.0971Z" fill="#FF8607"/>
<path fill-rule="evenodd" clip-rule="evenodd" d="M20.9677 37.6196H18.1491C17.7217 37.6196 17.375 37.2728 17.375 36.8454C17.375 36.418 17.7217 36.0713 18.1491 36.0713H20.9677C21.3951 36.0713 21.7419 36.418 21.7419 36.8454C21.7419 37.2728 21.3951 37.6196 20.9677 37.6196Z" fill="#FF8607"/>
<path fill-rule="evenodd" clip-rule="evenodd" d="M20.9677 39.9067H18.1491C17.7217 39.9067 17.375 39.56 17.375 39.1325C17.375 38.7051 17.7217 38.3584 18.1491 38.3584H20.9677C21.3951 38.3584 21.7419 38.7051 21.7419 39.1325C21.7419 39.56 21.3951 39.9067 20.9677 39.9067Z" fill="#FF8607"/>
<path fill-rule="evenodd" clip-rule="evenodd" d="M20.9677 42.1948H18.1491C17.7217 42.1948 17.375 41.848 17.375 41.4206C17.375 40.9932 17.7217 40.6465 18.1491 40.6465H20.9677C21.3951 40.6465 21.7419 40.9932 21.7419 41.4206C21.7419 41.848 21.3951 42.1948 20.9677 42.1948Z" fill="#FF8607"/>
<path fill-rule="evenodd" clip-rule="evenodd" d="M15.5274 35.1676C15.2639 35.1676 15.0071 35.0332 14.8621 34.7913L9.72774 26.2281C9.5073 25.8612 9.62695 25.3854 9.99387 25.1662C10.3608 24.9458 10.8366 25.0654 11.0558 25.4323L16.1901 33.9954C16.4105 34.3623 16.2909 34.8381 15.924 35.0573C15.8002 35.1327 15.6631 35.1676 15.5274 35.1676Z" fill="#FF8607"/>
<path fill-rule="evenodd" clip-rule="evenodd" d="M23.5826 35.1678C23.4468 35.1678 23.3097 35.1329 23.1847 35.0577C22.8178 34.8373 22.6995 34.3627 22.9186 33.9958L28.0529 25.4327C28.2733 25.0658 28.7478 24.9475 29.1148 25.1666C29.4817 25.387 29.6 25.8615 29.3809 26.2285L24.2466 34.7916C24.1027 35.0334 23.846 35.1678 23.5826 35.1678Z" fill="#FF8607"/>
<path d="M47 13.5L35.5 4.5V13.5H47Z" fill="#FF8607"/>
</g>
<defs>
<clipPath id="clip0_13343_7710">
<rect width="48" height="48" fill="white"/>
</clipPath>
</defs>
</svg>
