<svg width="20" height="19" viewBox="0 0 20 19" fill="none" xmlns="http://www.w3.org/2000/svg">
<path fill-rule="evenodd" clip-rule="evenodd" d="M6.22344 0.388008C7.20094 0.343008 7.5126 0.333008 10.0026 0.333008C12.4926 0.333008 12.8043 0.343841 13.7809 0.388008C14.7576 0.432174 15.4243 0.588008 16.0076 0.813841C16.6184 1.04467 17.1726 1.40551 17.6309 1.87217C18.0976 2.32967 18.4576 2.88301 18.6876 3.49467C18.9143 4.07801 19.0693 4.74467 19.1143 5.71967C19.1593 6.69884 19.1693 7.01051 19.1693 9.49967C19.1693 11.9897 19.1584 12.3013 19.1143 13.2788C19.0701 14.2538 18.9143 14.9205 18.6876 15.5038C18.4576 16.1156 18.097 16.6698 17.6309 17.128C17.1726 17.5947 16.6184 17.9547 16.0076 18.1847C15.4243 18.4113 14.7576 18.5663 13.7826 18.6113C12.8043 18.6563 12.4926 18.6663 10.0026 18.6663C7.5126 18.6663 7.20094 18.6555 6.22344 18.6113C5.24844 18.5672 4.58177 18.4113 3.99844 18.1847C3.3867 17.9546 2.83245 17.5941 2.37427 17.128C1.90792 16.6702 1.54703 16.1162 1.31677 15.5047C1.09094 14.9213 0.935937 14.2547 0.890937 13.2797C0.845937 12.3005 0.835938 11.9888 0.835938 9.49967C0.835938 7.00967 0.846771 6.69801 0.890937 5.72134C0.935104 4.74467 1.09094 4.07801 1.31677 3.49467C1.54737 2.88308 1.90854 2.3291 2.3751 1.87134C2.83264 1.40509 3.38633 1.04421 3.9976 0.813841C4.58094 0.588008 5.2476 0.433008 6.2226 0.388008H6.22344ZM13.7068 2.03801C12.7401 1.99384 12.4501 1.98467 10.0026 1.98467C7.5551 1.98467 7.2651 1.99384 6.29844 2.03801C5.40427 2.07884 4.91927 2.22801 4.59594 2.35384C4.16844 2.52051 3.8626 2.71801 3.54177 3.03884C3.23764 3.33472 3.00359 3.69491 2.85677 4.09301C2.73094 4.41634 2.58177 4.90134 2.54094 5.79551C2.49677 6.76217 2.4876 7.05217 2.4876 9.49967C2.4876 11.9472 2.49677 12.2372 2.54094 13.2038C2.58177 14.098 2.73094 14.583 2.85677 14.9063C3.00344 15.3038 3.2376 15.6647 3.54177 15.9605C3.8376 16.2647 4.19844 16.4988 4.59594 16.6455C4.91927 16.7713 5.40427 16.9205 6.29844 16.9613C7.2651 17.0055 7.55427 17.0147 10.0026 17.0147C12.4509 17.0147 12.7401 17.0055 13.7068 16.9613C14.6009 16.9205 15.0859 16.7713 15.4093 16.6455C15.8368 16.4788 16.1426 16.2813 16.4634 15.9605C16.7676 15.6647 17.0018 15.3038 17.1484 14.9063C17.2743 14.583 17.4234 14.098 17.4643 13.2038C17.5084 12.2372 17.5176 11.9472 17.5176 9.49967C17.5176 7.05217 17.5084 6.76217 17.4643 5.79551C17.4234 4.90134 17.2743 4.41634 17.1484 4.09301C16.9818 3.66551 16.7843 3.35967 16.4634 3.03884C16.1675 2.73473 15.8074 2.50068 15.4093 2.35384C15.0859 2.22801 14.6009 2.07884 13.7068 2.03801ZM8.83177 12.3255C9.48565 12.5977 10.2138 12.6344 10.8917 12.4294C11.5697 12.2244 12.1554 11.7904 12.5489 11.2015C12.9425 10.6126 13.1193 9.9054 13.0493 9.20059C12.9793 8.49579 12.6668 7.83715 12.1651 7.33717C11.8453 7.01757 11.4586 6.77285 11.0329 6.62063C10.6071 6.46841 10.153 6.41247 9.70302 6.45685C9.25307 6.50123 8.81856 6.64482 8.43077 6.87728C8.04298 7.10974 7.71156 7.42529 7.46036 7.80122C7.20915 8.17714 7.04443 8.60408 6.97803 9.05131C6.91164 9.49853 6.94523 9.95492 7.07639 10.3876C7.20754 10.8203 7.433 11.2185 7.73654 11.5536C8.04007 11.8887 8.41412 12.1523 8.83177 12.3255ZM6.67094 6.16801C7.10846 5.73049 7.62787 5.38343 8.19952 5.14664C8.77117 4.90986 9.38386 4.78799 10.0026 4.78799C10.6214 4.78799 11.234 4.90986 11.8057 5.14664C12.3773 5.38343 12.8967 5.73049 13.3343 6.16801C13.7718 6.60553 14.1189 7.12494 14.3556 7.69659C14.5924 8.26824 14.7143 8.88093 14.7143 9.49967C14.7143 10.1184 14.5924 10.7311 14.3556 11.3028C14.1189 11.8744 13.7718 12.3938 13.3343 12.8313C12.4507 13.715 11.2522 14.2114 10.0026 14.2114C8.75299 14.2114 7.55455 13.715 6.67094 12.8313C5.78732 11.9477 5.29092 10.7493 5.29092 9.49967C5.29092 8.25006 5.78732 7.05162 6.67094 6.16801ZM15.7593 5.48967C15.8677 5.3874 15.9545 5.26441 16.0145 5.12799C16.0746 4.99156 16.1066 4.84448 16.1088 4.69545C16.111 4.54642 16.0832 4.39846 16.0272 4.26035C15.9711 4.12223 15.888 3.99677 15.7826 3.89137C15.6772 3.78598 15.5517 3.70281 15.4136 3.64677C15.2755 3.59074 15.1275 3.56299 14.9785 3.56516C14.8295 3.56733 14.6824 3.59939 14.546 3.65942C14.4095 3.71946 14.2865 3.80625 14.1843 3.91467C13.9854 4.12553 13.8765 4.40561 13.8807 4.69545C13.8849 4.98529 14.0019 5.26207 14.2069 5.46704C14.4119 5.67201 14.6887 5.78903 14.9785 5.79326C15.2683 5.79748 15.5484 5.68858 15.7593 5.48967Z" fill="#393738"/>
</svg>
