<svg width="40" height="40" viewBox="0 0 40 40" fill="none" xmlns="http://www.w3.org/2000/svg">
<rect x="0.5" y="0.5" width="39" height="39" rx="19.5" stroke="#FF8607"/>
<path d="M25.7823 21.7813C25.6416 21.922 25.4509 22.001 25.252 22.001L16.5625 22.001L19.783 25.22C19.8527 25.2897 19.908 25.3725 19.9457 25.4636C19.9835 25.5547 20.0029 25.6524 20.0029 25.751C20.0029 25.8496 19.9835 25.9473 19.9457 26.0384C19.908 26.1295 19.8527 26.2123 19.783 26.282C19.7132 26.3517 19.6304 26.4071 19.5393 26.4448C19.4482 26.4825 19.3506 26.502 19.252 26.502C19.1533 26.502 19.0557 26.4825 18.9646 26.4448C18.8735 26.4071 18.7907 26.3517 18.721 26.282L14.221 21.782C14.1511 21.7123 14.0957 21.6296 14.0579 21.5385C14.0201 21.4473 14.0006 21.3497 14.0006 21.251C14.0006 21.1524 14.0201 21.0547 14.0579 20.9636C14.0957 20.8724 14.1511 20.7897 14.221 20.72L18.721 16.22C18.7907 16.1503 18.8735 16.095 18.9646 16.0572C19.0557 16.0195 19.1533 16.0001 19.252 16.0001C19.3506 16.0001 19.4482 16.0195 19.5393 16.0572C19.6304 16.095 19.7132 16.1503 19.783 16.22C19.8527 16.2897 19.908 16.3725 19.9457 16.4636C19.9835 16.5547 20.0029 16.6524 20.0029 16.751C20.0029 16.8496 19.9835 16.9473 19.9457 17.0384C19.908 17.1295 19.8527 17.2123 19.783 17.282L16.5625 20.501L25.252 20.501C25.4509 20.501 25.6416 20.58 25.7823 20.7207C25.9229 20.8613 26.002 21.0521 26.002 21.251C26.002 21.4499 25.9229 21.6407 25.7823 21.7813Z" fill="#FF8607"/>
</svg>
