<svg width="58" height="40" viewBox="0 0 58 40" fill="none" xmlns="http://www.w3.org/2000/svg">
<path d="M46.625 13.9257C47.8625 10.8132 49.8125 7.73819 52.4187 4.77565C53.2437 3.83815 53.3562 2.48821 52.6813 1.43821C52.1562 0.613212 51.2938 0.16323 50.3563 0.16323C50.0938 0.16323 49.8312 0.181884 49.5687 0.275729C44.0563 1.88821 31.1749 7.60692 30.8187 25.9445C30.6875 33.0132 35.8624 39.0881 42.5938 39.7819C46.325 40.1569 50.0374 38.9382 52.7938 36.4632C55.5499 33.9694 57.125 30.4069 57.125 26.6944C57.125 20.5069 52.7374 15.0882 46.625 13.9257Z" fill="#FF8607"/>
<path d="M12.6671 39.7819C16.3797 40.1569 20.0921 38.9382 22.8483 36.4632C25.6046 33.9694 27.1797 30.4069 27.1797 26.6944C27.1797 20.5069 22.7921 15.0882 16.6796 13.9257C17.9172 10.8132 19.8671 7.73819 22.4734 4.77568C23.2984 3.83818 23.4109 2.48823 22.7358 1.43823C22.2109 0.613231 21.3483 0.163249 20.4108 0.163249C20.1484 0.163249 19.8859 0.181903 19.6234 0.275749C14.1109 1.88823 1.22963 7.60694 0.873382 25.9445L0.873382 26.2069C0.873381 33.1632 5.99209 39.0881 12.6671 39.7819Z" fill="#FF8607"/>
</svg>
