<svg width="40" height="40" viewBox="0 0 40 40" fill="none" xmlns="http://www.w3.org/2000/svg">
<rect x="0.5" y="0.5" width="39" height="39" rx="19.5" stroke="#FF8607"/>
<path d="M14.2197 19.7206C14.3603 19.58 14.5511 19.5009 14.75 19.5009H23.4395L20.219 16.2819C20.1493 16.2122 20.094 16.1294 20.0562 16.0383C20.0185 15.9472 19.9991 15.8496 19.9991 15.7509C19.9991 15.6523 20.0185 15.5547 20.0562 15.4636C20.094 15.3725 20.1493 15.2897 20.219 15.2199C20.2887 15.1502 20.3715 15.0949 20.4626 15.0572C20.5537 15.0194 20.6514 15 20.75 15C20.8486 15 20.9463 15.0194 21.0374 15.0572C21.1285 15.0949 21.2113 15.1502 21.281 15.2199L25.781 19.7199C25.8508 19.7896 25.9063 19.8724 25.9441 19.9635C25.9819 20.0546 26.0013 20.1523 26.0013 20.2509C26.0013 20.3496 25.9819 20.4473 25.9441 20.5384C25.9063 20.6295 25.8508 20.7123 25.781 20.7819L21.281 25.2819C21.2113 25.3517 21.1285 25.407 21.0374 25.4447C20.9463 25.4825 20.8486 25.5019 20.75 25.5019C20.6514 25.5019 20.5537 25.4825 20.4626 25.4447C20.3715 25.407 20.2887 25.3517 20.219 25.2819C20.1493 25.2122 20.094 25.1294 20.0562 25.0383C20.0185 24.9472 19.9991 24.8496 19.9991 24.7509C19.9991 24.6523 20.0185 24.5547 20.0562 24.4636C20.094 24.3725 20.1493 24.2897 20.219 24.2199L23.4395 21.0009H14.75C14.5511 21.0009 14.3603 20.9219 14.2197 20.7813C14.079 20.6406 14 20.4499 14 20.2509C14 20.052 14.079 19.8613 14.2197 19.7206Z" fill="#FF8607"/>
</svg>
