<svg width="48" height="48" viewBox="0 0 48 48" fill="none" xmlns="http://www.w3.org/2000/svg">
<g clip-path="url(#clip0_13343_7870)">
<path d="M30.4 30.4806V23.1998C30.4 21.8766 29.3232 20.7998 28 20.7998H5.6C4.2768 20.7998 3.2 21.8766 3.2 23.1998V30.4806C1.3768 30.8526 0 32.4686 0 34.3998V39.1998V47.1998C0 47.6414 0.3584 47.9998 0.8 47.9998H4C4.4416 47.9998 4.8 47.6414 4.8 47.1998V44.7998H28.8V47.1998C28.8 47.6414 29.1584 47.9998 29.6 47.9998H32.8C33.2416 47.9998 33.6 47.6414 33.6 47.1998V39.1998V34.3998C33.6 32.4686 32.2232 30.8526 30.4 30.4806ZM4.8 23.1998C4.8 22.759 5.1592 22.3998 5.6 22.3998H28C28.4408 22.3998 28.8 22.759 28.8 23.1998V30.3998H27.2V27.1998C27.2 25.8766 26.1232 24.7998 24.8 24.7998H20C18.6768 24.7998 17.6 25.8766 17.6 27.1998V30.3998H16V27.1998C16 25.8766 14.9232 24.7998 13.6 24.7998H8.8C7.4768 24.7998 6.4 25.8766 6.4 27.1998V30.3998H4.8V23.1998ZM25.6 27.1998V30.3998H19.2V27.1998C19.2 26.759 19.5592 26.3998 20 26.3998H24.8C25.2408 26.3998 25.6 26.759 25.6 27.1998ZM14.4 27.1998V30.3998H8V27.1998C8 26.759 8.3592 26.3998 8.8 26.3998H13.6C14.0408 26.3998 14.4 26.759 14.4 27.1998ZM32 46.3998H30.4V43.9998C30.4 43.5582 30.0416 43.1998 29.6 43.1998H4C3.5584 43.1998 3.2 43.5582 3.2 43.9998V46.3998H1.6V39.9998H32V46.3998ZM32 38.3998H1.6V34.3998C1.6 33.0766 2.6768 31.9998 4 31.9998H7.2H15.2H18.4H26.4H29.6C30.9232 31.9998 32 33.0766 32 34.3998V38.3998Z" fill="#FF8607"/>
<path d="M47.1992 30.4004H35.9992C35.5576 30.4004 35.1992 30.7588 35.1992 31.2004V37.6004V43.2004H36.7992V38.4004H46.3992V43.2004H47.9992V37.6004V31.2004C47.9992 30.7588 47.6408 30.4004 47.1992 30.4004ZM46.3992 36.8004H36.7992V32.0004H46.3992V36.8004Z" fill="#FF8607"/>
<path d="M43.2 33.5996H40V35.1996H43.2V33.5996Z" fill="#FF8607"/>
<path d="M45.5591 23.7468L43.9591 18.9468C43.8495 18.6204 43.5447 18.4004 43.1999 18.4004H39.9999C39.6551 18.4004 39.3503 18.6204 39.2407 18.9476L37.6407 23.7476C37.5591 23.9916 37.6007 24.2596 37.7511 24.4684C37.9015 24.6772 38.1431 24.8004 38.3999 24.8004H40.7999V27.2004H39.1999V28.8004H43.9999V27.2004H42.3999V24.8004H44.7999C45.0567 24.8004 45.2983 24.6772 45.4487 24.4676C45.5991 24.2588 45.6399 23.9908 45.5591 23.7468ZM39.5095 23.2004L40.5767 20.0004H42.6239L43.6903 23.2004H39.5095Z" fill="#FF8607"/>
<path d="M39.5095 23.2004L40.5767 20.0004H42.6239L43.6903 23.2004H39.5095Z" fill="#FF8607"/>
<path d="M47.5272 10.4696L24.3272 0.0696C24.1184 -0.0232 23.8808 -0.0232 23.6728 0.0696L0.4728 10.4696C0.1848 10.5992 0 10.8848 0 11.2V20.8H1.6V11.7176L24 1.6768L46.4 11.7184V20.8H48V11.2C48 10.8848 47.8152 10.5992 47.5272 10.4696Z" fill="#FF8607"/>
<path d="M29.5228 11.0676L27.9444 11.3332C27.982 11.5516 28.0004 11.7756 28.0004 12.0004C28.0004 14.206 26.206 16.0004 24.0004 16.0004C21.7948 16.0004 20.0004 14.206 20.0004 12.0004C20.0004 9.79479 21.7948 8.00039 24.0004 8.00039C24.458 8.00039 24.9076 8.07719 25.3348 8.22839L25.8676 6.71959C25.2684 6.50759 24.6404 6.40039 24.0004 6.40039C20.9124 6.40039 18.4004 8.91239 18.4004 12.0004C18.4004 15.0884 20.9124 17.6004 24.0004 17.6004C27.0884 17.6004 29.6004 15.0884 29.6004 12.0004C29.6004 11.6868 29.574 11.3732 29.5228 11.0676Z" fill="#FF8607"/>
<path d="M29.034 6.63477L23.9996 11.6692L22.9652 10.6348L21.834 11.766L23.434 13.366C23.59 13.522 23.7948 13.6004 23.9996 13.6004C24.2044 13.6004 24.4092 13.522 24.5652 13.366L30.1652 7.76597L29.034 6.63477Z" fill="#FF8607"/>
</g>
<defs>
<clipPath id="clip0_13343_7870">
<rect width="48" height="48" fill="white"/>
</clipPath>
</defs>
</svg>
