<svg width="48" height="48" viewBox="0 0 48 48" fill="none" xmlns="http://www.w3.org/2000/svg">
<g clip-path="url(#clip0_13343_7768)">
<path d="M24.0059 1.82327e-05C23.8763 -0.000869153 23.7485 0.0306387 23.6353 0.0937793L3.38364 11.3959C2.84958 11.6939 2.87949 12.4714 3.43352 12.7307L8.24965 14.984V17.2492H7.50262C7.08845 17.2492 6.74973 17.5821 6.74973 17.9964V24.7478C6.74973 25.1643 7.08615 25.5009 7.50262 25.5009H10.5039C10.9181 25.5009 11.2509 25.1621 11.2509 24.7478V17.9964C11.2509 17.5844 10.9158 17.2492 10.5039 17.2492H9.751V15.6873L15.3493 18.307C15.5607 18.8339 15.8826 19.3873 16.3336 19.8937V20.1019C14.9052 20.2527 13.8142 21.5218 13.8142 23.0365C13.8142 24.6273 15.0086 25.9708 16.6104 25.9873C16.6751 25.9873 16.7232 25.9845 16.7876 25.9788C17.3145 27.4235 18.2749 28.6757 19.4989 29.564V31.1933L19.2778 30.9721C19.1361 30.8295 18.9428 30.7498 18.7417 30.751C18.5455 30.7537 18.3585 30.8332 18.2202 30.9721L16.1418 33.0482C12.4594 33.364 8.64837 35.7776 6.89922 40.0162C6.77819 40.3545 6.00276 42.0335 6.00276 44.595V47.2469C6.00276 47.6612 6.33562 48 6.74979 48H41.2505C41.6647 48 41.9975 47.6612 41.9975 47.2469V44.595C41.9975 42.5242 41.4887 40.9422 41.0659 39.9446C39.4077 35.9454 35.688 33.3838 31.86 33.0452L29.78 30.9721C29.6369 30.828 29.4412 30.7481 29.2381 30.7509C29.0419 30.7536 28.8549 30.8331 28.7166 30.9721L28.5012 31.1876V29.5627C29.7251 28.6744 30.6841 27.4237 31.211 25.979C31.2753 25.9847 31.3266 25.9875 31.3912 25.9875C32.9558 25.9875 34.1875 24.6334 34.1875 23.0367C34.1875 21.5424 33.1229 20.2615 31.6681 20.1049L31.6709 19.8821C32.0926 19.4214 32.4384 18.8347 32.6494 18.31L44.5666 12.7307C45.1205 12.4714 45.1504 11.694 44.6165 11.396L24.3663 0.0938643C24.2563 0.0324249 24.132 0.000868797 24.0059 1.82327e-05ZM24.0002 1.61168L42.6069 11.9893L33.0655 16.458C33.1086 15.772 33.0324 15.3192 33.0026 15.154V10.7923C33.0026 10.4414 32.8362 10.1352 32.6423 9.91758C32.4481 9.7 32.2198 9.54338 31.9612 9.40332C31.4439 9.1232 30.7932 8.91174 30.0072 8.73228C28.4351 8.37335 26.3313 8.16234 24.0002 8.16234C21.6692 8.16234 19.5654 8.37334 17.9933 8.73228C17.2073 8.91175 16.5566 9.12318 16.0393 9.40332C15.7808 9.54338 15.5523 9.69999 15.3582 9.91758C15.1643 10.1352 14.9996 10.4414 14.9994 10.7923L14.9965 15.1423C14.9665 15.3074 14.8959 15.772 14.9378 16.458L9.7512 14.0302V9.55862L24.0002 1.61168ZM29.6688 10.1945C30.3738 10.3555 30.9324 10.5496 31.2478 10.7205C31.3926 10.7989 31.4694 10.8645 31.5026 10.8978V13.5834C31.1013 13.4107 30.6086 13.2607 30.0071 13.1233C28.435 12.7644 26.3312 12.5534 24.0001 12.5534C21.6691 12.5534 19.5653 12.7644 17.9932 13.1233C17.3917 13.2607 16.8634 13.4209 16.4992 13.5775V10.8978C16.5326 10.8645 16.6091 10.7989 16.754 10.7205C17.0694 10.5497 17.6206 10.3555 18.3257 10.1945C19.7357 9.87256 21.7609 9.66265 24.0001 9.66265C26.2394 9.66265 28.2587 9.87257 29.6688 10.1945ZM8.24976 10.3967V13.327L5.39347 11.9893L8.24976 10.3967ZM29.6688 14.5855C30.3738 14.7465 30.9324 14.9465 31.2478 15.1174C31.3464 15.1714 31.4728 15.2538 31.504 15.2859C31.5097 15.336 31.5154 15.3595 31.5239 15.3884C31.5409 15.474 31.8727 17.3809 30.5864 18.8388H26.5144C24.6897 18.8388 23.1494 17.4809 22.8774 15.7049C22.8219 15.3423 22.5132 15.0722 22.1465 15.0676C21.7318 15.0623 21.392 15.3955 21.3878 15.8104C21.3709 17.4729 20.0181 18.8388 18.3382 18.8388H17.4081C16.0802 17.2784 16.4824 15.4017 16.4882 15.3005C16.518 15.2693 16.6041 15.1989 16.7547 15.1174C17.0701 14.9466 17.6096 14.7524 18.3146 14.5914C19.7247 14.2695 21.7616 14.0537 24.0005 14.0537C26.2394 14.0537 28.2587 14.2636 29.6688 14.5855ZM22.2542 18.0916C23.0395 19.2731 24.5578 20.3392 26.5137 20.3392H30.1683V23.3515C30.1683 26.7532 27.4317 29.5095 24.0002 29.5095C20.5687 29.5095 17.8336 26.7505 17.8336 23.3515V20.3392H18.3375C20.2008 20.3392 21.5979 19.2364 22.2542 18.0916ZM8.24976 18.7495H9.75112V23.9991H8.24976V18.7495ZM16.3337 21.6256V23.3515C16.3337 23.7311 16.3592 24.1046 16.4114 24.4694C15.8365 24.3756 15.3143 23.7959 15.3143 23.0365C15.3143 22.3377 15.7675 21.7541 16.3337 21.6256ZM31.6681 21.6256C32.2172 21.758 32.6861 22.3143 32.6861 23.0365C32.6861 23.7959 32.1781 24.3701 31.5876 24.4664C31.6412 24.1017 31.6681 23.7311 31.6681 23.3515L31.6681 21.6256ZM21.0004 30.4017C21.9221 30.7932 22.9352 31.0054 24.0002 31.0054C25.0652 31.0054 26.0798 30.7961 27.0015 30.4047V32.6874L24.0002 35.6895L21.0004 32.6903V30.4017ZM18.7461 32.5614L22.9427 36.7473L21.7533 37.9385L17.5626 33.7452L18.7461 32.5614ZM29.2484 32.5614L30.4392 33.7511L26.2544 37.9429L25.0578 36.7473L29.2484 32.5614ZM31.7619 34.5466C34.9504 34.8558 37.9251 36.8547 39.4724 40.0468C40.3778 41.933 40.4977 43.6351 40.4977 44.5946V46.4993H35.2495V44.2503C35.2495 43.8256 34.9109 43.4912 34.4863 43.4987C34.0721 43.5072 33.7496 43.8359 33.7496 44.2503V46.4993H14.2523V44.2503C14.2523 43.825 13.9128 43.4908 13.4877 43.4987C13.0735 43.5072 12.7509 43.8359 12.7509 44.2503V46.4993H7.50274V44.5946C7.50274 43.1895 7.77031 41.8672 8.2605 40.6573C9.58063 37.3694 12.6108 34.8985 16.2399 34.5496L21.2216 39.5267C21.5141 39.8176 21.9866 39.8176 22.2791 39.5267L24.0002 37.8095L25.7228 39.5267C26.0153 39.8176 26.4877 39.8176 26.7803 39.5267L31.7619 34.5466Z" fill="#FF8607"/>
<path d="M29.6688 10.1945C30.3738 10.3555 30.9324 10.5496 31.2478 10.7205C31.3926 10.7989 31.4694 10.8645 31.5026 10.8978V13.5834C31.1013 13.4107 30.6086 13.2607 30.0071 13.1233C28.435 12.7644 26.3312 12.5534 24.0001 12.5534C21.6691 12.5534 19.5653 12.7644 17.9932 13.1233C17.3917 13.2607 16.8634 13.4209 16.4992 13.5775V10.8978C16.5326 10.8645 16.6091 10.7989 16.754 10.7205C17.0694 10.5497 17.6206 10.3555 18.3257 10.1945C19.7357 9.87256 21.7609 9.66265 24.0001 9.66265C26.2394 9.66265 28.2587 9.87257 29.6688 10.1945Z" fill="#FF8607"/>
<path d="M8.24976 18.7495H9.75112V23.9991H8.24976V18.7495Z" fill="#FF8607"/>
</g>
<defs>
<clipPath id="clip0_13343_7768">
<rect width="48" height="48" fill="white"/>
</clipPath>
</defs>
</svg>
