<svg width="48" height="48" viewBox="0 0 48 48" fill="none" xmlns="http://www.w3.org/2000/svg">
<g clip-path="url(#clip0_13343_7858)">
<path fill-rule="evenodd" clip-rule="evenodd" d="M27.7266 38.3613C27.7266 33.0465 32.0504 28.7227 37.3651 28.7227C42.6798 28.7227 47.0036 33.0465 47.0036 38.3613C47.0036 43.6761 42.6798 47.9998 37.3651 47.9998C32.0504 47.9998 27.7266 43.6761 27.7266 38.3613ZM40.3394 33.2967C40.7137 32.9067 41.3353 32.9003 41.7175 33.2825C42.0997 33.6647 42.0933 34.2863 41.7033 34.6606L39.5686 36.7091L41.223 41.7084L40.1736 42.7578L37.6079 38.5908L35.4107 40.6993L35.6327 42.0515L34.6842 43L33.9879 41.0121L32 40.3158L32.9485 39.3673L34.3007 39.5893L36.4092 37.3921L32.2422 34.8264L33.2916 33.777L38.2909 35.4314L40.3394 33.2967Z" fill="#FF8607"/>
<path d="M28.2174 44.7293H24.2348L22.335 34.0108L23.2071 32.513C23.8492 32.7015 24.5527 32.5357 25.0475 32.0539C25.0499 32.0516 25.0523 32.0492 25.0546 32.0468L29.3069 27.788C30.1054 28.0072 30.88 28.3077 31.6146 28.6837C31.9597 28.8601 32.3838 28.7247 32.5613 28.3778C32.7383 28.0319 32.6015 27.6081 32.2556 27.4311C31.3418 26.9633 30.3726 26.6003 29.3731 26.3508L27.4972 25.2006C26.9032 24.8363 26.1393 24.8421 25.5509 25.2154L25.3383 25.3503C24.9584 24.7968 25.0477 24.3389 25.0857 23.6033C25.4941 23.3403 25.8893 23.041 26.2707 22.7057C26.8984 22.154 27.431 21.5008 27.8548 20.7762H29.2884C30.9121 20.7762 32.233 19.4553 32.233 17.8316V12.3622C32.233 11.4447 31.6988 10.6342 30.9014 10.2564V6.40012C30.9014 4.66856 29.4926 3.25987 27.7611 3.25987H27.6789C27.613 3.25987 27.5594 3.20625 27.5594 3.14034C27.5595 1.40878 26.1508 0 24.4192 0H16.6631C12.8291 0 9.70988 3.11925 9.70988 6.95334V10.2565C8.91253 10.6343 8.37816 11.4449 8.37816 12.3622V15.1439C8.37816 16.4295 9.42403 17.4753 10.7095 17.4753H11.678C11.9167 19.5481 12.8885 21.4413 14.4102 22.7563C14.7703 23.0675 15.1422 23.3468 15.5256 23.5944C15.4833 24.316 15.6524 24.8047 15.2734 25.3506L15.0603 25.2154C14.472 24.8421 13.708 24.8363 13.1141 25.2006L11.2388 26.3504C8.35378 27.0709 5.75362 28.7498 3.90675 31.0878C2.02978 33.4638 0.996094 36.4403 0.996094 39.4689V42.2909C0.996094 44.4113 2.72109 46.1362 4.84144 46.1362H28.2173C28.6058 46.1362 28.9208 45.8213 28.9208 45.4328C28.9209 45.0443 28.6059 44.7293 28.2174 44.7293ZM26.3046 26.4036C26.4428 26.3158 26.6222 26.3145 26.7616 26.4001L27.9666 27.1389L24.0631 31.0485C23.8882 31.2159 23.6171 31.2254 23.4309 31.07C22.8111 30.5522 21.8298 29.7325 21.4962 29.4539C22.7086 28.6848 25.0989 27.1684 26.3046 26.4036ZM24.1504 26.1039L20.3057 28.5429L16.4632 26.1053C17.0227 25.2646 16.9202 24.4379 16.9327 24.339C17.9993 24.7867 19.1388 25.0166 20.3422 25.0251H20.3472C20.3509 25.0251 20.3544 25.0251 20.3581 25.025C21.5302 25.0068 22.6398 24.7791 23.6787 24.3451C23.6916 24.4444 23.5846 25.2459 24.1504 26.1039ZM22.0321 31.7347L21.1928 33.1762H19.4186L18.5794 31.7347L20.3058 30.2927L22.0321 31.7347ZM25.8326 20.5189H23.9947C23.6825 20.5189 23.4285 20.2649 23.4285 19.9527C23.4285 19.6405 23.6825 19.3866 23.9947 19.3866H25.8326C26.1447 19.3866 26.3988 19.6406 26.3988 19.9527C26.3987 20.2649 26.1447 20.5189 25.8326 20.5189ZM30.8261 17.8318C30.8261 18.6796 30.1364 19.3694 29.2885 19.3694H28.5088C28.7243 18.764 28.8728 18.1283 28.9484 17.4754H29.9018C30.23 17.4754 30.5425 17.4071 30.8261 17.2842V17.8318ZM30.7225 11.9373C30.7889 12.0652 30.8261 12.21 30.8261 12.3623V15.144C30.8261 15.6537 30.4115 16.0684 29.9018 16.0684H29.0019V13.2583C29.2103 13.1477 30.2431 13.0304 30.7225 11.9373ZM11.6094 16.0683H10.7096C10.1999 16.0683 9.78525 15.6536 9.78525 15.1439V12.3622C9.78525 12.21 9.82247 12.0651 9.88884 11.9372C10.3687 13.0312 11.4042 13.1492 11.6094 13.2581V16.0683ZM11.6017 11.7655C11.3118 11.6646 11.117 11.3905 11.117 11.0835C11.117 10.0201 11.117 7.50047 11.117 6.95334C11.117 3.89503 13.605 1.407 16.6632 1.407H24.4193C25.375 1.407 26.1525 2.18456 26.1525 3.14034C26.1525 3.98213 26.8373 4.66687 27.679 4.66687H27.7612C28.7169 4.66687 29.4945 5.44444 29.4945 6.40012V11.0836C29.4945 11.3905 29.2998 11.6646 29.0098 11.7655C28.6619 11.8868 27.8358 12.1745 27.4709 12.3016C27.3913 12.3293 27.3065 12.2722 27.3066 12.1843L27.3094 9.27394C27.3185 7.09884 25.2923 5.34881 22.5807 6.22031C21.161 6.67641 19.4232 6.66759 18.0308 6.22041C15.3431 5.35631 13.2928 7.07278 13.302 9.27178L13.3054 12.1845C13.3056 12.2703 13.2222 12.3297 13.1411 12.3015C12.7776 12.1749 11.949 11.8865 11.6017 11.7655ZM15.3303 21.6918C12.9408 19.6269 13.0522 16.7174 13.0164 16.5382V13.7063C13.0712 13.7123 13.126 13.7153 13.1808 13.7153C14.0355 13.7153 14.7136 13.0206 14.7123 12.1827L14.7089 9.26813C14.704 8.10403 15.7563 6.96731 17.6002 7.56C19.3122 8.10994 21.3579 8.09109 23.0111 7.55991C24.7372 7.00537 25.9076 7.98534 25.9022 9.27047L25.8994 12.1827C25.8982 13.0852 26.6803 13.8047 27.5948 13.7064V16.7221C27.5725 17.3732 27.4644 18.0089 27.2785 18.6116C26.918 18.223 26.4031 17.9796 25.8324 17.9796H23.9945C22.9064 17.9796 22.0213 18.8647 22.0213 19.9528C22.0213 21.0408 22.9065 21.926 23.9945 21.926H25.011C23.6659 22.9975 22.1049 23.589 20.3439 23.6181C18.4352 23.6028 16.7575 22.925 15.3303 21.6918ZM13.8497 26.4001C13.9892 26.3146 14.1685 26.3159 14.3067 26.4036C15.5322 27.1809 17.9074 28.6878 19.1151 29.4539C17.2221 31.0344 17.2185 31.0382 17.1804 31.07C16.9942 31.2254 16.723 31.216 16.5483 31.0485L12.6448 27.1389L13.8497 26.4001ZM16.3766 44.7293H9.40584V41.4276C9.40584 41.039 9.09084 40.7241 8.70234 40.7241C8.31384 40.7241 7.99884 41.039 7.99884 41.4276V44.7293H4.84153C3.49706 44.7293 2.40319 43.6355 2.40319 42.291V39.469C2.40319 36.7555 3.32934 34.0888 5.01094 31.96C6.60675 29.9399 8.83003 28.469 11.3044 27.788L15.5568 32.0469C15.5591 32.0493 15.5615 32.0517 15.5639 32.054C16.0576 32.5347 16.7606 32.702 17.4043 32.5131L18.2764 34.0109L16.3766 44.7293ZM17.8055 44.7293L19.6039 34.5833H21.0074L22.8058 44.7293H17.8055Z" fill="#FF8607"/>
</g>
<defs>
<clipPath id="clip0_13343_7858">
<rect width="48" height="48" fill="white"/>
</clipPath>
</defs>
</svg>
