<svg width="48" height="48" viewBox="0 0 48 48" fill="none" xmlns="http://www.w3.org/2000/svg">
<g clip-path="url(#clip0_13343_7838)">
<path d="M47.1207 6.31388C47.0293 6.12248 46.8656 5.97521 46.6656 5.90412L30.0711 0.0459148C29.6547 -0.101351 29.1977 0.117399 29.0504 0.533805L25.2809 11.2002H23.632V8.48029C23.632 7.73576 23.2863 7.03342 22.6965 6.57912C22.1062 6.12482 21.3391 5.97013 20.6191 6.16037L1.39688 11.2268V11.2412C1.04844 11.3287 0.803516 11.6408 0.800781 12.0002V45.6002C0.800781 46.9256 1.87539 48.0002 3.20078 48.0002H25.6008C26.9262 48.0002 28.0008 46.9256 28.0008 45.6002V38.3412L34.4168 40.6061C34.8336 40.7529 35.2906 40.5346 35.4375 40.1178L47.1551 6.92521C47.2254 6.72482 47.2129 6.5049 47.1207 6.31388ZM21.0273 7.70334C21.2672 7.64006 21.5234 7.69162 21.7199 7.84279C21.9168 7.99435 22.032 8.22873 22.032 8.47717V11.2002H7.76953L21.0273 7.70334ZM26.4008 45.6002C26.4008 46.042 26.0426 46.4002 25.6008 46.4002H3.20078C2.75898 46.4002 2.40078 46.042 2.40078 45.6002V12.8002H25.6008C26.0426 12.8002 26.4008 13.1584 26.4008 13.6002V45.6002ZM32.977 15.8459L34.0008 15.3604L34.4887 16.3811L30.6016 27.3819C30.5312 27.5819 30.543 27.8018 30.6344 27.9932L31.4672 29.7354L31.2098 30.4658L29.623 28.8229C29.4488 28.6408 29.1988 28.5522 28.9488 28.5826L28.0008 28.7026V27.6307L28.6832 27.3041C28.8746 27.2127 29.0219 27.049 29.093 26.849L30.693 22.3244L32.977 15.8459ZM34.4855 21.1858L36.1098 23.7955L35.832 24.5819L33.8887 22.8803L34.4855 21.1858ZM28.0008 25.1354V22.9369L28.7879 22.9041L28.0008 25.1354ZM29.3609 21.2795L28.0008 21.3354V20.2705L29.9594 19.5873L29.3609 21.2795ZM34.1945 38.8307L28.0008 36.6444V30.3154L28.7504 30.2217L30.9609 32.5084C31.1125 32.6631 31.3203 32.7494 31.5367 32.7483C31.5937 32.7486 31.6508 32.7424 31.7062 32.7299C31.9773 32.6709 32.198 32.476 32.2902 32.2147L33.0902 29.9514C33.1609 29.7514 33.1492 29.5315 33.0574 29.3404L32.2207 27.6002L33.3152 24.5002L35.6656 26.5604C35.8113 26.6881 35.9988 26.7588 36.193 26.7588C36.2613 26.7588 36.3293 26.7498 36.3953 26.7322C36.652 26.6651 36.8586 26.4752 36.9473 26.2252L37.7473 23.9619C37.8281 23.7326 37.8004 23.4795 37.6719 23.2733L35.168 19.2506L36.1055 16.5955C36.1762 16.3951 36.1645 16.1752 36.0727 15.9834L35.0969 13.9428C34.9062 13.544 34.4285 13.3752 34.0297 13.5658L31.9879 14.542C31.7969 14.6334 31.6496 14.7971 31.5793 14.9971L30.6406 17.6553L28.0008 18.5764V13.6002C27.9988 12.7678 27.5645 11.9959 26.8535 11.5627L28.1609 7.85529L28.4543 7.02365L30.2945 1.82365L45.3816 7.14904L34.1945 38.8307Z" fill="#FF8607"/>
<path d="M32.977 15.8459L34.0008 15.3604L34.4887 16.3811L30.6016 27.3819C30.5312 27.5819 30.543 27.8018 30.6344 27.9932L31.4672 29.7354L31.2098 30.4658L29.623 28.8229C29.4488 28.6408 29.1988 28.5522 28.9488 28.5826L28.0008 28.7026V27.6307L28.6832 27.3041C28.8746 27.2127 29.0219 27.049 29.093 26.849L30.693 22.3244L32.977 15.8459Z" fill="#FF8607"/>
<path d="M34.4855 21.1858L36.1098 23.7955L35.832 24.5819L33.8887 22.8803L34.4855 21.1858Z" fill="#FF8607"/>
<path d="M29.3609 21.2795L28.0008 21.3354V20.2705L29.9594 19.5873L29.3609 21.2795Z" fill="#FF8607"/>
<path d="M40.5059 12.2141L41.0383 10.7051L42.4102 11.1891L41.8777 12.698L40.5059 12.2141Z" fill="#FF8607"/>
<path d="M29.5332 8.33965L30.066 6.83105L31.4375 7.31543L30.9047 8.82402L29.5332 8.33965Z" fill="#FF8607"/>
<path d="M37.7617 11.2453L38.2945 9.73633L39.666 10.2207L39.1332 11.7293L37.7617 11.2453Z" fill="#FF8607"/>
<path d="M32.2754 9.3084L32.8082 7.7998L34.1793 8.28418L33.6465 9.79277L32.2754 9.3084Z" fill="#FF8607"/>
<path d="M35.0195 10.2762L35.5523 8.76758L36.9238 9.25195L36.391 10.7605L35.0195 10.2762Z" fill="#FF8607"/>
<path d="M14.0312 16C9.61289 16 6.03125 19.5816 6.03125 24C6.03125 28.4184 9.61289 32 14.0312 32C18.4496 32 22.0312 28.4184 22.0312 24C22.0266 19.584 18.4477 16.0051 14.0312 16ZM19.8082 21.2648L18.7168 21.025C18.2367 20.9191 17.7566 20.8352 17.2719 20.7625C17.1984 20.2777 17.1121 19.7953 17.009 19.3176L16.7688 18.2266C18.1004 18.8605 19.1738 19.9332 19.8082 21.2648ZM7.63125 24C7.63281 23.673 7.65938 23.3465 7.71133 23.0234L9.68945 22.5832C9.99297 22.516 10.2984 22.4602 10.6047 22.4074C10.5273 23.4676 10.5273 24.5324 10.6047 25.593C10.2984 25.5402 9.99297 25.484 9.68945 25.4168L7.71133 24.977C7.65938 24.6539 7.63281 24.3273 7.63125 24ZM12.2281 22.1977C13.4273 22.0906 14.6336 22.0906 15.8328 22.1977C15.9402 23.3969 15.9402 24.6031 15.8328 25.8023C14.6336 25.9098 13.4273 25.9098 12.2281 25.8023C12.1207 24.6031 12.1207 23.3969 12.2281 22.1977ZM17.4543 22.4074C17.7609 22.4602 18.0664 22.516 18.3695 22.5832L20.348 23.0234C20.459 23.6699 20.459 24.3305 20.348 24.977L18.3695 25.4168C18.0664 25.484 17.7609 25.5402 17.4543 25.5938C17.532 24.5328 17.532 23.468 17.4543 22.4074ZM15.0074 17.6801L15.4473 19.6594C15.5145 19.9625 15.5711 20.268 15.6242 20.5746C14.5633 20.4969 13.4984 20.4969 12.4375 20.5746C12.4906 20.268 12.5465 19.9625 12.6145 19.6594L13.0543 17.6801C13.7008 17.5703 14.3609 17.5703 15.0074 17.6801ZM11.2953 18.2207L11.0551 19.3121C10.9496 19.7922 10.8656 20.2723 10.793 20.757C10.3082 20.8297 9.82578 20.9168 9.34805 21.0191L8.25664 21.2594C8.8918 19.9289 9.96445 18.857 11.2953 18.2234V18.2207ZM8.25508 26.7328L9.34648 26.973C9.82656 27.0785 10.3063 27.1625 10.7914 27.2352C10.8641 27.7199 10.9512 28.2023 11.0535 28.6801L11.2938 29.7711C9.96211 29.1379 8.88906 28.066 8.25352 26.7352L8.25508 26.7328ZM13.0551 30.3152L12.6152 28.3359C12.5473 28.0336 12.4914 27.7273 12.4383 27.4215C12.968 27.4602 13.5 27.4863 14.032 27.4863C14.5641 27.4863 15.0945 27.4602 15.625 27.4215C15.5719 27.7273 15.5152 28.0336 15.448 28.3359L15.0082 30.3152C14.3617 30.425 13.7016 30.425 13.0551 30.3152ZM16.7672 29.7746L17.0074 28.6832C17.1137 28.2031 17.1969 27.7234 17.2703 27.2383C17.7543 27.1656 18.2375 27.0785 18.7152 26.9762L19.8063 26.7359C19.1723 28.0688 18.0988 29.1426 16.7664 29.777L16.7672 29.7746Z" fill="#FF8607"/>
<path d="M7.63086 38.4004H20.4309V40.0004H7.63086V38.4004Z" fill="#FF8607"/>
<path d="M9.23047 41.5996H18.8305V43.1996H9.23047V41.5996Z" fill="#FF8607"/>
<path d="M13.2305 35.2002H14.8305V36.8002H13.2305V35.2002Z" fill="#FF8607"/>
<path d="M10.0312 35.2002H11.6313V36.8002H10.0312V35.2002Z" fill="#FF8607"/>
<path d="M16.4316 35.2002H18.0316V36.8002H16.4316V35.2002Z" fill="#FF8607"/>
</g>
<defs>
<clipPath id="clip0_13343_7838">
<rect width="48" height="48" fill="white"/>
</clipPath>
</defs>
</svg>
