<svg width="20" height="17" viewBox="0 0 20 17" fill="none" xmlns="http://www.w3.org/2000/svg">
<path d="M19.4236 2.61464C18.7278 2.92297 17.9803 3.1313 17.1945 3.22547C18.0053 2.7403 18.6119 1.97669 18.9011 1.07714C18.1393 1.52963 17.3056 1.84813 16.4361 2.0188C15.8514 1.39453 15.077 0.980743 14.2331 0.841699C13.3891 0.702656 12.5229 0.846131 11.7688 1.24985C11.0148 1.65357 10.4151 2.29494 10.0629 3.07439C9.71073 3.85384 9.62573 4.72776 9.82112 5.56047C8.27753 5.48297 6.76748 5.08176 5.38897 4.38289C4.01047 3.68402 2.79432 2.70311 1.81945 1.5038C1.48612 2.0788 1.29445 2.74547 1.29445 3.45547C1.29408 4.09463 1.45148 4.72401 1.75269 5.28775C2.05389 5.85149 2.48959 6.33217 3.02112 6.68714C2.40468 6.66752 1.80185 6.50096 1.26279 6.2013V6.2513C1.26272 7.14775 1.57281 8.01662 2.14044 8.71047C2.70806 9.40432 3.49826 9.88041 4.37695 10.058C3.80511 10.2127 3.20557 10.2355 2.62362 10.1246C2.87153 10.896 3.35445 11.5705 4.00476 12.0537C4.65507 12.537 5.44022 12.8048 6.25029 12.8196C4.87515 13.8991 3.17686 14.4847 1.42862 14.4821C1.11894 14.4822 0.809517 14.4641 0.501953 14.428C2.27652 15.5689 4.34224 16.1745 6.45195 16.1721C13.5936 16.1721 17.4978 10.2571 17.4978 5.12714C17.4978 4.96047 17.4936 4.79214 17.4861 4.62547C18.2455 4.07628 18.901 3.39622 19.422 2.61714L19.4236 2.61464Z" fill="#393738"/>
</svg>
